<?xml version="1.0" encoding="UTF-8"?>
<svg xmlns="http://www.w3.org/2000/svg" xmlns:xlink="http://www.w3.org/1999/xlink" width="49px" height="48px" viewBox="0 0 12 11" version="1.1">
<g id="surface1">
<path style=" stroke:none;fill-rule:nonzero;fill:rgb(0%,0%,0%);fill-opacity:1;" d="M 4.550781 1.289062 C 3.839844 1.398438 3.214844 1.859375 2.9375 2.484375 C 2.863281 2.644531 2.777344 2.964844 2.777344 3.0625 C 2.777344 3.109375 2.765625 3.125 2.714844 3.136719 C 2.570312 3.164062 2.480469 3.199219 2.308594 3.285156 C 1.804688 3.53125 1.484375 4.078125 1.519531 4.628906 C 1.542969 5.015625 1.675781 5.308594 1.960938 5.578125 C 2.109375 5.722656 2.183594 5.773438 2.339844 5.847656 C 2.59375 5.96875 2.75 6 3.09375 6.019531 L 3.375 6.035156 L 3.375 6.554688 C 3.375 7.105469 3.359375 7.253906 3.28125 7.40625 C 3.183594 7.605469 2.941406 7.792969 2.730469 7.84375 C 2.683594 7.855469 2.667969 7.84375 2.628906 7.773438 C 2.566406 7.664062 2.425781 7.554688 2.285156 7.511719 C 2.015625 7.425781 1.714844 7.546875 1.574219 7.796875 C 1.503906 7.925781 1.503906 8.179688 1.574219 8.308594 C 1.671875 8.484375 1.90625 8.625 2.109375 8.625 C 2.3125 8.625 2.550781 8.480469 2.632812 8.308594 C 2.679688 8.222656 2.691406 8.210938 2.785156 8.195312 C 3.070312 8.15625 3.441406 7.890625 3.59375 7.613281 C 3.726562 7.367188 3.746094 7.257812 3.746094 6.605469 L 3.746094 6.027344 L 5.078125 6.027344 L 5.078125 8.796875 L 5.003906 8.835938 C 4.898438 8.886719 4.785156 8.992188 4.726562 9.097656 C 4.691406 9.164062 4.675781 9.226562 4.675781 9.351562 C 4.675781 9.492188 4.6875 9.53125 4.738281 9.617188 C 4.847656 9.796875 5.066406 9.921875 5.261719 9.921875 C 5.578125 9.921875 5.863281 9.644531 5.863281 9.335938 C 5.863281 9.148438 5.707031 8.925781 5.523438 8.835938 L 5.445312 8.796875 L 5.445312 6.027344 L 6.78125 6.027344 L 6.78125 8.195312 L 6.691406 8.238281 C 6.492188 8.320312 6.347656 8.582031 6.375 8.800781 C 6.394531 8.945312 6.464844 9.0625 6.585938 9.167969 C 6.808594 9.355469 7.125 9.355469 7.347656 9.167969 C 7.472656 9.0625 7.539062 8.945312 7.558594 8.800781 C 7.585938 8.582031 7.445312 8.324219 7.246094 8.238281 L 7.152344 8.199219 L 7.152344 6.027344 L 8.339844 6.027344 L 8.351562 6.527344 C 8.363281 6.984375 8.367188 7.042969 8.421875 7.195312 C 8.554688 7.582031 8.886719 7.882812 9.277344 7.964844 C 9.390625 7.992188 9.40625 8 9.445312 8.078125 C 9.5625 8.332031 9.9375 8.460938 10.214844 8.34375 C 10.585938 8.1875 10.6875 7.730469 10.417969 7.445312 C 10.292969 7.316406 10.15625 7.261719 9.976562 7.261719 C 9.738281 7.261719 9.570312 7.359375 9.417969 7.597656 C 9.398438 7.628906 9.382812 7.625 9.265625 7.582031 C 9.097656 7.515625 8.96875 7.417969 8.878906 7.289062 C 8.753906 7.109375 8.738281 7.015625 8.738281 6.5 L 8.738281 6.035156 L 9.011719 6.019531 C 9.347656 6 9.5 5.964844 9.75 5.847656 C 9.902344 5.777344 9.988281 5.71875 10.121094 5.589844 C 10.59375 5.136719 10.710938 4.496094 10.417969 3.925781 C 10.191406 3.476562 9.777344 3.191406 9.234375 3.117188 L 9.058594 3.089844 L 9.011719 2.976562 C 8.90625 2.703125 8.59375 2.492188 8.265625 2.46875 C 8.109375 2.457031 8.105469 2.457031 7.964844 2.335938 C 7.640625 2.046875 7.171875 1.9375 6.738281 2.039062 L 6.578125 2.074219 L 6.503906 1.988281 C 6.019531 1.449219 5.261719 1.175781 4.550781 1.289062 Z M 5.414062 1.703125 C 5.785156 1.820312 6.136719 2.085938 6.34375 2.390625 L 6.445312 2.546875 L 6.636719 2.460938 C 6.773438 2.394531 6.859375 2.371094 6.980469 2.359375 C 7.332031 2.335938 7.695312 2.503906 7.878906 2.785156 C 7.925781 2.851562 7.957031 2.878906 7.980469 2.867188 C 8.171875 2.796875 8.390625 2.824219 8.527344 2.9375 C 8.652344 3.039062 8.691406 3.132812 8.691406 3.308594 L 8.691406 3.453125 L 8.859375 3.453125 C 9.324219 3.457031 9.609375 3.554688 9.851562 3.789062 C 10.011719 3.945312 10.101562 4.09375 10.15625 4.277344 C 10.3125 4.863281 9.9375 5.46875 9.328125 5.621094 C 9.207031 5.648438 8.796875 5.652344 6.046875 5.652344 C 2.613281 5.652344 2.746094 5.660156 2.492188 5.527344 C 2.425781 5.492188 2.308594 5.40625 2.230469 5.332031 C 1.824219 4.953125 1.777344 4.335938 2.121094 3.90625 C 2.335938 3.640625 2.601562 3.5 2.976562 3.464844 L 3.140625 3.449219 L 3.152344 3.207031 C 3.171875 2.835938 3.28125 2.546875 3.519531 2.25 C 3.726562 1.992188 4.097656 1.765625 4.457031 1.671875 C 4.714844 1.605469 5.15625 1.621094 5.414062 1.703125 Z M 10.125 7.675781 C 10.171875 7.722656 10.191406 7.761719 10.191406 7.820312 C 10.191406 7.984375 9.980469 8.089844 9.851562 7.992188 C 9.734375 7.898438 9.71875 7.769531 9.820312 7.675781 C 9.871094 7.628906 9.910156 7.613281 9.972656 7.613281 C 10.03125 7.613281 10.074219 7.628906 10.125 7.675781 Z M 2.191406 7.863281 C 2.398438 7.945312 2.34375 8.25 2.121094 8.25 C 2.007812 8.25 1.949219 8.21875 1.910156 8.125 C 1.878906 8.054688 1.882812 8.042969 1.917969 7.96875 C 1.957031 7.898438 2.039062 7.835938 2.09375 7.832031 C 2.101562 7.832031 2.148438 7.84375 2.191406 7.863281 Z M 7.117188 8.589844 C 7.195312 8.664062 7.195312 8.796875 7.121094 8.882812 C 7.011719 9 6.785156 8.9375 6.753906 8.78125 C 6.738281 8.710938 6.789062 8.59375 6.84375 8.5625 C 6.921875 8.515625 7.058594 8.53125 7.117188 8.589844 Z M 5.421875 9.210938 C 5.539062 9.339844 5.449219 9.546875 5.273438 9.546875 C 5.160156 9.546875 5.105469 9.515625 5.066406 9.429688 C 4.96875 9.210938 5.257812 9.035156 5.421875 9.210938 Z M 5.421875 9.210938 "/>
<path style=" stroke:none;fill-rule:nonzero;fill:rgb(0%,0%,0%);fill-opacity:1;" d="M 4.25 4.085938 C 4.078125 4.566406 3.9375 4.964844 3.933594 4.972656 C 3.929688 4.984375 4.027344 4.996094 4.152344 4.996094 L 4.382812 4.996094 L 4.4375 4.828125 L 4.488281 4.664062 L 5.117188 4.664062 L 5.167969 4.828125 L 5.222656 4.996094 L 5.453125 4.996094 C 5.578125 4.996094 5.675781 4.984375 5.671875 4.972656 C 5.671875 4.964844 5.527344 4.5625 5.355469 4.082031 L 5.042969 3.210938 L 4.5625 3.210938 Z M 4.910156 3.996094 L 5.003906 4.300781 L 4.902344 4.308594 C 4.847656 4.3125 4.757812 4.3125 4.703125 4.308594 L 4.601562 4.300781 L 4.695312 3.996094 C 4.746094 3.832031 4.792969 3.695312 4.804688 3.695312 C 4.8125 3.695312 4.859375 3.832031 4.910156 3.996094 Z M 4.910156 3.996094 "/>
<path style=" stroke:none;fill-rule:nonzero;fill:rgb(0%,0%,0%);fill-opacity:1;" d="M 5.839844 4.101562 L 5.839844 4.996094 L 6.277344 4.996094 L 6.277344 4.289062 L 6.570312 4.289062 C 6.886719 4.289062 6.984375 4.269531 7.113281 4.171875 C 7.242188 4.082031 7.300781 3.9375 7.300781 3.730469 C 7.300781 3.523438 7.246094 3.402344 7.125 3.316406 C 6.988281 3.222656 6.917969 3.210938 6.367188 3.210938 L 5.839844 3.210938 Z M 6.828125 3.617188 C 6.898438 3.679688 6.894531 3.832031 6.816406 3.890625 C 6.761719 3.933594 6.71875 3.9375 6.515625 3.9375 L 6.277344 3.9375 L 6.277344 3.558594 L 6.527344 3.566406 C 6.734375 3.574219 6.789062 3.582031 6.828125 3.617188 Z M 6.828125 3.617188 "/>
<path style=" stroke:none;fill-rule:nonzero;fill:rgb(0%,0%,0%);fill-opacity:1;" d="M 7.519531 4.101562 L 7.519531 4.996094 L 7.957031 4.996094 L 7.957031 3.210938 L 7.519531 3.210938 Z M 7.519531 4.101562 "/>
</g>
</svg>
