<?xml version="1.0" encoding="UTF-8"?>
<svg xmlns="http://www.w3.org/2000/svg" xmlns:xlink="http://www.w3.org/1999/xlink" width="157px" height="55px" viewBox="0 0 55 55" version="1.1">
<g id="surface1">
<path style=" stroke:none;fill-rule:nonzero;fill:rgb(0%,0%,0%);fill-opacity:1;" d="M 20.570312 6.433594 C 17.171875 6.984375 14.191406 9.304688 12.871094 12.417969 C 12.519531 13.234375 12.101562 14.816406 12.101562 15.3125 C 12.101562 15.554688 12.035156 15.632812 11.804688 15.6875 C 11.109375 15.828125 10.679688 15.992188 9.855469 16.421875 C 7.457031 17.65625 5.929688 20.394531 6.082031 23.15625 C 6.203125 25.070312 6.84375 26.53125 8.195312 27.894531 C 8.898438 28.609375 9.261719 28.875 10.011719 29.238281 C 11.230469 29.84375 11.96875 30.007812 13.605469 30.097656 L 14.960938 30.171875 L 14.960938 32.78125 C 14.960938 35.53125 14.882812 36.265625 14.507812 37.035156 C 14.035156 38.027344 12.882812 38.972656 11.878906 39.214844 C 11.648438 39.269531 11.570312 39.214844 11.386719 38.875 C 11.089844 38.324219 10.417969 37.773438 9.757812 37.554688 C 8.460938 37.125 7.027344 37.730469 6.347656 38.996094 C 6.015625 39.621094 6.015625 40.898438 6.347656 41.535156 C 6.820312 42.425781 7.941406 43.121094 8.910156 43.121094 C 9.878906 43.121094 11.011719 42.40625 11.417969 41.535156 C 11.628906 41.105469 11.691406 41.050781 12.132812 40.984375 C 13.507812 40.777344 15.269531 39.445312 15.992188 38.070312 C 16.632812 36.839844 16.71875 36.289062 16.71875 33.023438 L 16.71875 30.140625 L 23.101562 30.140625 L 23.101562 43.988281 L 22.746094 44.175781 C 22.242188 44.429688 21.691406 44.96875 21.417969 45.484375 C 21.242188 45.816406 21.175781 46.121094 21.175781 46.75 C 21.175781 47.453125 21.21875 47.652344 21.472656 48.09375 C 22 48.984375 23.035156 49.609375 23.980469 49.609375 C 25.476562 49.609375 26.839844 48.214844 26.839844 46.683594 C 26.839844 45.75 26.101562 44.628906 25.222656 44.175781 L 24.859375 43.988281 L 24.859375 30.140625 L 31.238281 30.140625 L 31.238281 40.984375 L 30.800781 41.183594 C 29.855469 41.601562 29.160156 42.898438 29.292969 44.011719 C 29.382812 44.726562 29.710938 45.320312 30.292969 45.835938 C 31.359375 46.773438 32.878906 46.773438 33.945312 45.835938 C 34.527344 45.320312 34.859375 44.726562 34.945312 44.011719 C 35.078125 42.898438 34.398438 41.625 33.449219 41.195312 L 33 40.996094 L 33 30.140625 L 38.6875 30.140625 L 38.742188 32.636719 C 38.796875 34.925781 38.820312 35.222656 39.070312 35.980469 C 39.710938 37.917969 41.292969 39.414062 43.164062 39.832031 C 43.703125 39.953125 43.78125 40.007812 43.957031 40.390625 C 44.527344 41.667969 46.308594 42.304688 47.640625 41.722656 C 49.410156 40.929688 49.90625 38.644531 48.609375 37.234375 C 48.003906 36.585938 47.367188 36.300781 46.496094 36.300781 C 45.363281 36.300781 44.5625 36.804688 43.835938 37.984375 C 43.734375 38.148438 43.671875 38.136719 43.097656 37.90625 C 42.304688 37.574219 41.691406 37.09375 41.261719 36.441406 C 40.667969 35.550781 40.589844 35.078125 40.589844 32.503906 L 40.589844 30.171875 L 41.898438 30.097656 C 43.492188 30.007812 44.21875 29.832031 45.429688 29.238281 C 46.144531 28.886719 46.550781 28.589844 47.191406 27.949219 C 49.457031 25.683594 50.007812 22.484375 48.621094 19.636719 C 47.519531 17.378906 45.550781 15.960938 42.964844 15.574219 L 42.109375 15.445312 L 41.886719 14.871094 C 41.382812 13.507812 39.898438 12.453125 38.335938 12.34375 C 37.574219 12.285156 37.554688 12.277344 36.894531 11.671875 C 35.332031 10.242188 33.109375 9.691406 31.019531 10.1875 L 30.273438 10.371094 L 29.910156 9.945312 C 27.597656 7.238281 23.96875 5.875 20.570312 6.433594 Z M 24.695312 8.515625 C 26.464844 9.109375 28.160156 10.429688 29.148438 11.957031 L 29.632812 12.726562 L 30.535156 12.296875 C 31.195312 11.980469 31.613281 11.859375 32.1875 11.804688 C 33.867188 11.671875 35.597656 12.519531 36.488281 13.925781 C 36.695312 14.257812 36.851562 14.386719 36.960938 14.34375 C 37.882812 13.992188 38.917969 14.125 39.578125 14.683594 C 40.171875 15.203125 40.371094 15.664062 40.371094 16.542969 L 40.371094 17.269531 L 41.171875 17.269531 C 43.382812 17.28125 44.738281 17.765625 45.902344 18.941406 C 46.671875 19.722656 47.101562 20.460938 47.355469 21.394531 C 48.113281 24.320312 46.320312 27.335938 43.394531 28.105469 C 42.824219 28.246094 40.863281 28.269531 27.71875 28.269531 C 11.320312 28.269531 11.957031 28.292969 10.734375 27.632812 C 10.429688 27.46875 9.867188 27.027344 9.492188 26.664062 C 7.546875 24.761719 7.316406 21.679688 8.964844 19.535156 C 9.988281 18.195312 11.265625 17.5 13.046875 17.324219 L 13.828125 17.246094 L 13.894531 16.027344 C 13.980469 14.179688 14.507812 12.726562 15.652344 11.242188 C 16.632812 9.953125 18.402344 8.820312 20.128906 8.359375 C 21.363281 8.03125 23.472656 8.105469 24.695312 8.515625 Z M 47.199219 38.378906 C 47.433594 38.621094 47.519531 38.808594 47.519531 39.105469 C 47.519531 39.917969 46.519531 40.445312 45.914062 39.953125 C 45.34375 39.5 45.277344 38.851562 45.75 38.378906 C 45.992188 38.148438 46.179688 38.058594 46.476562 38.058594 C 46.773438 38.058594 46.960938 38.148438 47.199219 38.378906 Z M 9.296875 39.3125 C 10.285156 39.730469 10.03125 41.25 8.964844 41.25 C 8.425781 41.25 8.152344 41.085938 7.964844 40.621094 C 7.808594 40.28125 7.820312 40.203125 7.996094 39.84375 C 8.171875 39.488281 8.570312 39.171875 8.832031 39.160156 C 8.878906 39.160156 9.085938 39.226562 9.296875 39.3125 Z M 32.835938 42.953125 C 33.210938 43.316406 33.210938 43.976562 32.847656 44.40625 C 32.328125 45 31.25 44.691406 31.097656 43.910156 C 31.03125 43.550781 31.261719 42.964844 31.535156 42.800781 C 31.910156 42.582031 32.550781 42.65625 32.835938 42.953125 Z M 24.726562 46.046875 C 25.300781 46.695312 24.871094 47.738281 24.035156 47.738281 C 23.496094 47.738281 23.222656 47.574219 23.046875 47.144531 C 22.582031 46.058594 23.945312 45.164062 24.726562 46.046875 Z M 24.726562 46.046875 "/>
<path style=" stroke:none;fill-rule:nonzero;fill:rgb(0%,0%,0%);fill-opacity:1;" d="M 19.140625 20.425781 C 18.324219 22.824219 17.644531 24.828125 17.621094 24.871094 C 17.601562 24.925781 18.074219 24.96875 18.679688 24.96875 L 19.777344 24.96875 L 20.03125 24.144531 L 20.273438 23.320312 L 23.285156 23.320312 L 23.527344 24.144531 L 23.78125 24.96875 L 24.882812 24.96875 C 25.488281 24.96875 25.960938 24.925781 25.9375 24.871094 C 25.925781 24.816406 25.234375 22.8125 24.421875 20.414062 L 22.933594 16.058594 L 20.625 16.058594 Z M 22.296875 19.988281 L 22.738281 21.503906 L 22.253906 21.539062 C 22 21.558594 21.558594 21.558594 21.308594 21.539062 L 20.824219 21.503906 L 21.261719 19.988281 C 21.503906 19.160156 21.734375 18.480469 21.78125 18.480469 C 21.824219 18.480469 22.054688 19.160156 22.296875 19.988281 Z M 22.296875 19.988281 "/>
<path style=" stroke:none;fill-rule:nonzero;fill:rgb(0%,0%,0%);fill-opacity:1;" d="M 26.730469 20.515625 L 26.730469 24.96875 L 28.820312 24.96875 L 28.820312 21.449219 L 30.226562 21.449219 C 31.734375 21.4375 32.195312 21.339844 32.824219 20.855469 C 33.429688 20.40625 33.714844 19.679688 33.714844 18.644531 C 33.714844 17.621094 33.460938 17.015625 32.867188 16.578125 C 32.230469 16.105469 31.890625 16.058594 29.25 16.058594 L 26.730469 16.058594 Z M 31.449219 18.085938 C 31.800781 18.402344 31.769531 19.160156 31.394531 19.460938 C 31.140625 19.65625 30.941406 19.691406 29.964844 19.691406 L 28.820312 19.691406 L 28.820312 17.796875 L 30.019531 17.84375 C 31.007812 17.875 31.261719 17.917969 31.449219 18.085938 Z M 31.449219 18.085938 "/>
<path style=" stroke:none;fill-rule:nonzero;fill:rgb(0%,0%,0%);fill-opacity:1;" d="M 34.761719 20.515625 L 34.761719 24.96875 L 36.851562 24.96875 L 36.851562 16.058594 L 34.761719 16.058594 Z M 34.761719 20.515625 "/>
</g>
</svg>
