<?xml version="1.0" encoding="UTF-8"?>
<svg xmlns="http://www.w3.org/2000/svg" xmlns:xlink="http://www.w3.org/1999/xlink" width="157px" height="55px" viewBox="0 0 157 55" version="1.1">
<defs>
<filter id="alpha" filterUnits="objectBoundingBox" x="0%" y="0%" width="100%" height="100%">
  <feColorMatrix type="matrix" in="SourceGraphic" values="0 0 0 0 1 0 0 0 0 1 0 0 0 0 1 0 0 0 1 0"/>
</filter>
<mask id="mask0">
  <g filter="url(#alpha)">
<rect x="0" y="0" width="157" height="55" style="fill:rgb(0%,0%,0%);fill-opacity:0.811765;stroke:none;"/>
  </g>
</mask>
<clipPath id="clip1">
  <rect x="0" y="0" width="157" height="55"/>
</clipPath>
<g id="surface5" clip-path="url(#clip1)">
<path style=" stroke:none;fill-rule:evenodd;fill:rgb(50.196078%,50.196078%,50.196078%);fill-opacity:1;" d="M 46.316406 19.195312 C 46.757812 19.246094 46.964844 19.355469 46.941406 19.523438 C 46.5 19.472656 46.292969 19.363281 46.316406 19.195312 Z M 46.316406 19.195312 "/>
</g>
<mask id="mask1">
  <g filter="url(#alpha)">
<rect x="0" y="0" width="157" height="55" style="fill:rgb(0%,0%,0%);fill-opacity:0.576471;stroke:none;"/>
  </g>
</mask>
<clipPath id="clip2">
  <rect x="0" y="0" width="157" height="55"/>
</clipPath>
<g id="surface8" clip-path="url(#clip2)">
<path style=" stroke:none;fill-rule:evenodd;fill:rgb(47.843137%,47.843137%,47.843137%);fill-opacity:1;" d="M 35.011719 22.496094 C 33.859375 22.347656 32.707031 22.347656 31.558594 22.496094 C 31.988281 22.351562 32.5625 22.28125 33.285156 22.273438 C 34.003906 22.28125 34.582031 22.351562 35.011719 22.496094 Z M 35.011719 22.496094 "/>
</g>
<mask id="mask2">
  <g filter="url(#alpha)">
<rect x="0" y="0" width="157" height="55" style="fill:rgb(0%,0%,0%);fill-opacity:0.615686;stroke:none;"/>
  </g>
</mask>
<clipPath id="clip3">
  <rect x="0" y="0" width="157" height="55"/>
</clipPath>
<g id="surface11" clip-path="url(#clip3)">
<path style=" stroke:none;fill-rule:evenodd;fill:rgb(41.568627%,41.568627%,41.568627%);fill-opacity:1;" d="M 46.628906 22.386719 C 44.328125 22.386719 42.023438 22.386719 39.722656 22.386719 C 39.722656 23.703125 39.722656 25.023438 39.722656 26.34375 C 39.410156 25.007812 39.304688 23.652344 39.40625 22.273438 C 41.871094 22.238281 44.28125 22.277344 46.628906 22.386719 Z M 46.628906 22.386719 "/>
</g>
<mask id="mask3">
  <g filter="url(#alpha)">
<rect x="0" y="0" width="157" height="55" style="fill:rgb(0%,0%,0%);fill-opacity:0.686275;stroke:none;"/>
  </g>
</mask>
<clipPath id="clip4">
  <rect x="0" y="0" width="157" height="55"/>
</clipPath>
<g id="surface14" clip-path="url(#clip4)">
<path style=" stroke:none;fill-rule:evenodd;fill:rgb(33.72549%,33.72549%,33.72549%);fill-opacity:1;" d="M 49.769531 22.386719 C 50.644531 22.277344 51.585938 22.242188 52.59375 22.273438 C 52.699219 23.652344 52.59375 25.007812 52.28125 26.34375 C 52.28125 25.023438 52.28125 23.703125 52.28125 22.386719 C 51.445312 22.386719 50.605469 22.386719 49.769531 22.386719 Z M 49.769531 22.386719 "/>
</g>
<mask id="mask4">
  <g filter="url(#alpha)">
<rect x="0" y="0" width="157" height="55" style="fill:rgb(0%,0%,0%);fill-opacity:0.341176;stroke:none;"/>
  </g>
</mask>
<clipPath id="clip5">
  <rect x="0" y="0" width="157" height="55"/>
</clipPath>
<g id="surface17" clip-path="url(#clip5)">
<path style=" stroke:none;fill-rule:evenodd;fill:rgb(48.235294%,48.235294%,48.235294%);fill-opacity:1;" d="M 45.371094 23.265625 C 45.734375 23.296875 45.941406 23.386719 46 23.539062 C 45.992188 23.65625 45.886719 23.75 45.6875 23.816406 C 45.730469 23.617188 45.625 23.433594 45.371094 23.265625 Z M 45.371094 23.265625 "/>
</g>
<mask id="mask5">
  <g filter="url(#alpha)">
<rect x="0" y="0" width="157" height="55" style="fill:rgb(0%,0%,0%);fill-opacity:0.215686;stroke:none;"/>
  </g>
</mask>
<clipPath id="clip6">
  <rect x="0" y="0" width="157" height="55"/>
</clipPath>
<g id="surface20" clip-path="url(#clip6)">
<path style=" stroke:none;fill-rule:evenodd;fill:rgb(79.607843%,79.607843%,79.607843%);fill-opacity:1;" d="M 33.441406 23.703125 C 33.230469 23.777344 33.023438 23.851562 32.8125 23.925781 C 32.753906 23.75 32.910156 23.601562 33.285156 23.484375 C 33.429688 23.550781 33.480469 23.625 33.441406 23.703125 Z M 33.441406 23.703125 "/>
</g>
<mask id="mask6">
  <g filter="url(#alpha)">
<rect x="0" y="0" width="157" height="55" style="fill:rgb(0%,0%,0%);fill-opacity:0.305882;stroke:none;"/>
  </g>
</mask>
<clipPath id="clip7">
  <rect x="0" y="0" width="157" height="55"/>
</clipPath>
<g id="surface23" clip-path="url(#clip7)">
<path style=" stroke:none;fill-rule:evenodd;fill:rgb(70.588235%,70.588235%,70.588235%);fill-opacity:1;" d="M 112.253906 24.144531 C 111.3125 24.144531 110.371094 24.144531 109.429688 24.144531 C 109.429688 25.757812 109.429688 27.371094 109.429688 28.984375 C 109.117188 27.355469 109.011719 25.703125 109.113281 24.035156 C 110.226562 24 111.273438 24.039062 112.253906 24.144531 Z M 112.253906 24.144531 "/>
</g>
<mask id="mask7">
  <g filter="url(#alpha)">
<rect x="0" y="0" width="157" height="55" style="fill:rgb(0%,0%,0%);fill-opacity:0.886275;stroke:none;"/>
  </g>
</mask>
<clipPath id="clip8">
  <rect x="0" y="0" width="157" height="55"/>
</clipPath>
<g id="surface26" clip-path="url(#clip8)">
<path style=" stroke:none;fill-rule:evenodd;fill:rgb(50.196078%,50.196078%,50.196078%);fill-opacity:1;" d="M 29.988281 24.035156 C 30.105469 24.277344 29.898438 24.460938 29.359375 24.585938 C 29.453125 24.375 29.660156 24.191406 29.988281 24.035156 Z M 29.988281 24.035156 "/>
</g>
<mask id="mask8">
  <g filter="url(#alpha)">
<rect x="0" y="0" width="157" height="55" style="fill:rgb(0%,0%,0%);fill-opacity:0.0862745;stroke:none;"/>
  </g>
</mask>
<clipPath id="clip9">
  <rect x="0" y="0" width="157" height="55"/>
</clipPath>
<g id="surface29" clip-path="url(#clip9)">
<path style=" stroke:none;fill-rule:evenodd;fill:rgb(83.529412%,83.529412%,83.529412%);fill-opacity:1;" d="M 82.109375 28.105469 C 81.796875 26.914062 81.695312 25.703125 81.796875 24.476562 C 80.855469 24.476562 79.914062 24.476562 78.972656 24.476562 C 78.972656 25.648438 78.972656 26.820312 78.972656 27.996094 C 78.660156 26.804688 78.554688 25.59375 78.65625 24.363281 C 79.808594 24.363281 80.960938 24.363281 82.109375 24.363281 C 82.109375 25.613281 82.109375 26.859375 82.109375 28.105469 Z M 82.109375 28.105469 "/>
</g>
<mask id="mask9">
  <g filter="url(#alpha)">
<rect x="0" y="0" width="157" height="55" style="fill:rgb(0%,0%,0%);fill-opacity:0.521569;stroke:none;"/>
  </g>
</mask>
<clipPath id="clip10">
  <rect x="0" y="0" width="157" height="55"/>
</clipPath>
<g id="surface32" clip-path="url(#clip10)">
<path style=" stroke:none;fill-rule:evenodd;fill:rgb(45.490196%,45.490196%,45.490196%);fill-opacity:1;" d="M 90.902344 28.324219 C 90.902344 27.042969 90.902344 25.757812 90.902344 24.476562 C 90.066406 24.476562 89.226562 24.476562 88.390625 24.476562 C 88.492188 25.632812 88.390625 26.769531 88.078125 27.886719 C 88.078125 26.710938 88.078125 25.539062 88.078125 24.363281 C 89.125 24.363281 90.171875 24.363281 91.21875 24.363281 C 91.320312 25.703125 91.214844 27.023438 90.902344 28.324219 Z M 90.902344 28.324219 "/>
</g>
<mask id="mask10">
  <g filter="url(#alpha)">
<rect x="0" y="0" width="157" height="55" style="fill:rgb(0%,0%,0%);fill-opacity:0.0431373;stroke:none;"/>
  </g>
</mask>
<clipPath id="clip11">
  <rect x="0" y="0" width="157" height="55"/>
</clipPath>
<g id="surface35" clip-path="url(#clip11)">
<path style=" stroke:none;fill-rule:evenodd;fill:rgb(93.72549%,93.72549%,93.72549%);fill-opacity:1;" d="M 96.867188 24.804688 C 97.203125 24.703125 97.621094 24.664062 98.125 24.695312 C 98.125 25.023438 98.125 25.355469 98.125 25.683594 C 97.820312 25.414062 97.714844 25.121094 97.8125 24.804688 C 97.496094 24.804688 97.183594 24.804688 96.867188 24.804688 Z M 96.867188 24.804688 "/>
</g>
<mask id="mask11">
  <g filter="url(#alpha)">
<rect x="0" y="0" width="157" height="55" style="fill:rgb(0%,0%,0%);fill-opacity:0.0431373;stroke:none;"/>
  </g>
</mask>
<clipPath id="clip12">
  <rect x="0" y="0" width="157" height="55"/>
</clipPath>
<g id="surface38" clip-path="url(#clip12)">
<path style=" stroke:none;fill-rule:evenodd;fill:rgb(92.54902%,92.54902%,92.54902%);fill-opacity:1;" d="M 124.5 24.804688 C 124.722656 24.707031 125.039062 24.667969 125.441406 24.695312 C 125.441406 25.023438 125.441406 25.355469 125.441406 25.683594 C 125.316406 25.359375 125.003906 25.0625 124.5 24.804688 Z M 124.5 24.804688 "/>
</g>
<mask id="mask12">
  <g filter="url(#alpha)">
<rect x="0" y="0" width="157" height="55" style="fill:rgb(0%,0%,0%);fill-opacity:0.784314;stroke:none;"/>
  </g>
</mask>
<clipPath id="clip13">
  <rect x="0" y="0" width="157" height="55"/>
</clipPath>
<g id="surface41" clip-path="url(#clip13)">
<path style=" stroke:none;fill-rule:evenodd;fill:rgb(44.705882%,44.705882%,44.705882%);fill-opacity:1;" d="M 103.148438 25.023438 C 103.964844 25.109375 104.800781 25.144531 105.660156 25.136719 C 105.363281 25.207031 104.996094 25.242188 104.5625 25.246094 C 103.929688 25.265625 103.460938 25.191406 103.148438 25.023438 Z M 103.148438 25.023438 "/>
</g>
<mask id="mask13">
  <g filter="url(#alpha)">
<rect x="0" y="0" width="157" height="55" style="fill:rgb(0%,0%,0%);fill-opacity:0.784314;stroke:none;"/>
  </g>
</mask>
<clipPath id="clip14">
  <rect x="0" y="0" width="157" height="55"/>
</clipPath>
<g id="surface44" clip-path="url(#clip14)">
<path style=" stroke:none;fill-rule:evenodd;fill:rgb(44.705882%,44.705882%,44.705882%);fill-opacity:1;" d="M 115.710938 25.023438 C 116.523438 25.109375 117.363281 25.144531 118.222656 25.136719 C 117.921875 25.207031 117.558594 25.242188 117.121094 25.246094 C 116.492188 25.265625 116.019531 25.191406 115.710938 25.023438 Z M 115.710938 25.023438 "/>
</g>
<mask id="mask14">
  <g filter="url(#alpha)">
<rect x="0" y="0" width="157" height="55" style="fill:rgb(0%,0%,0%);fill-opacity:0.866667;stroke:none;"/>
  </g>
</mask>
<clipPath id="clip15">
  <rect x="0" y="0" width="157" height="55"/>
</clipPath>
<g id="surface47" clip-path="url(#clip15)">
<path style=" stroke:none;fill-rule:evenodd;fill:rgb(33.333333%,33.333333%,33.333333%);fill-opacity:1;" d="M 140.515625 26.125 C 140.515625 26.015625 140.515625 25.90625 140.515625 25.796875 C 139.539062 25.769531 138.597656 25.804688 137.6875 25.90625 C 138.121094 25.761719 138.695312 25.691406 139.414062 25.683594 C 141.070312 25.585938 141.4375 25.730469 140.515625 26.125 Z M 140.515625 26.125 "/>
</g>
<mask id="mask15">
  <g filter="url(#alpha)">
<rect x="0" y="0" width="157" height="55" style="fill:rgb(0%,0%,0%);fill-opacity:0.231373;stroke:none;"/>
  </g>
</mask>
<clipPath id="clip16">
  <rect x="0" y="0" width="157" height="55"/>
</clipPath>
<g id="surface50" clip-path="url(#clip16)">
<path style=" stroke:none;fill-rule:evenodd;fill:rgb(71.372549%,71.372549%,71.372549%);fill-opacity:1;" d="M 93.414062 25.683594 C 93.414062 25.941406 93.414062 26.199219 93.414062 26.453125 C 94.015625 26.421875 94.539062 26.460938 94.984375 26.566406 C 94.355469 26.566406 93.730469 26.566406 93.101562 26.566406 C 93.003906 26.246094 93.109375 25.953125 93.414062 25.683594 Z M 93.414062 25.683594 "/>
</g>
<mask id="mask16">
  <g filter="url(#alpha)">
<rect x="0" y="0" width="157" height="55" style="fill:rgb(0%,0%,0%);fill-opacity:0.231373;stroke:none;"/>
  </g>
</mask>
<clipPath id="clip17">
  <rect x="0" y="0" width="157" height="55"/>
</clipPath>
<g id="surface53" clip-path="url(#clip17)">
<path style=" stroke:none;fill-rule:evenodd;fill:rgb(71.372549%,71.372549%,71.372549%);fill-opacity:1;" d="M 120.734375 25.683594 C 120.734375 25.941406 120.734375 26.199219 120.734375 26.453125 C 121.335938 26.421875 121.859375 26.460938 122.304688 26.566406 C 121.675781 26.566406 121.046875 26.566406 120.417969 26.566406 C 120.324219 26.246094 120.425781 25.953125 120.734375 25.683594 Z M 120.734375 25.683594 "/>
</g>
<mask id="mask17">
  <g filter="url(#alpha)">
<rect x="0" y="0" width="157" height="55" style="fill:rgb(0%,0%,0%);fill-opacity:0.0392157;stroke:none;"/>
  </g>
</mask>
<clipPath id="clip18">
  <rect x="0" y="0" width="157" height="55"/>
</clipPath>
<g id="surface56" clip-path="url(#clip18)">
<path style=" stroke:none;fill-rule:evenodd;fill:rgb(86.666667%,86.666667%,86.666667%);fill-opacity:1;" d="M 100.949219 25.683594 C 101.257812 25.953125 101.359375 26.246094 101.265625 26.566406 C 100.21875 26.566406 99.171875 26.566406 98.125 26.566406 C 98.125 27.261719 98.125 27.957031 98.125 28.65625 C 97.8125 27.941406 97.710938 27.207031 97.8125 26.453125 C 98.859375 26.453125 99.90625 26.453125 100.949219 26.453125 C 100.949219 26.199219 100.949219 25.941406 100.949219 25.683594 Z M 100.949219 25.683594 "/>
</g>
<mask id="mask18">
  <g filter="url(#alpha)">
<rect x="0" y="0" width="157" height="55" style="fill:rgb(0%,0%,0%);fill-opacity:0.0431373;stroke:none;"/>
  </g>
</mask>
<clipPath id="clip19">
  <rect x="0" y="0" width="157" height="55"/>
</clipPath>
<g id="surface59" clip-path="url(#clip19)">
<path style=" stroke:none;fill-rule:evenodd;fill:rgb(86.666667%,86.666667%,86.666667%);fill-opacity:1;" d="M 128.269531 25.683594 C 128.574219 25.953125 128.679688 26.246094 128.582031 26.566406 C 127.535156 26.566406 126.488281 26.566406 125.441406 26.566406 C 125.441406 27.261719 125.441406 27.957031 125.441406 28.65625 C 125.132812 27.941406 125.027344 27.207031 125.128906 26.453125 C 126.175781 26.453125 127.222656 26.453125 128.269531 26.453125 C 128.269531 26.199219 128.269531 25.941406 128.269531 25.683594 Z M 128.269531 25.683594 "/>
</g>
<mask id="mask19">
  <g filter="url(#alpha)">
<rect x="0" y="0" width="157" height="55" style="fill:rgb(0%,0%,0%);fill-opacity:0.388235;stroke:none;"/>
  </g>
</mask>
<clipPath id="clip20">
  <rect x="0" y="0" width="157" height="55"/>
</clipPath>
<g id="surface62" clip-path="url(#clip20)">
<path style=" stroke:none;fill-rule:evenodd;fill:rgb(70.196078%,70.196078%,70.196078%);fill-opacity:1;" d="M 134.863281 28.214844 C 135.074219 28.214844 135.28125 28.214844 135.492188 28.214844 C 135.28125 28.507812 135.074219 28.507812 134.863281 28.214844 Z M 134.863281 28.214844 "/>
</g>
<mask id="mask20">
  <g filter="url(#alpha)">
<rect x="0" y="0" width="157" height="55" style="fill:rgb(0%,0%,0%);fill-opacity:0.247059;stroke:none;"/>
  </g>
</mask>
<clipPath id="clip21">
  <rect x="0" y="0" width="157" height="55"/>
</clipPath>
<g id="surface65" clip-path="url(#clip21)">
<path style=" stroke:none;fill-rule:evenodd;fill:rgb(68.235294%,68.235294%,68.235294%);fill-opacity:1;" d="M 29.988281 28.65625 C 32.652344 28.546875 35.371094 28.507812 38.152344 28.546875 C 38.355469 30.710938 38.148438 32.839844 37.523438 34.925781 C 37.832031 32.84375 37.9375 30.753906 37.835938 28.65625 C 35.21875 28.65625 32.605469 28.65625 29.988281 28.65625 Z M 29.988281 28.65625 "/>
</g>
<mask id="mask21">
  <g filter="url(#alpha)">
<rect x="0" y="0" width="157" height="55" style="fill:rgb(0%,0%,0%);fill-opacity:0.247059;stroke:none;"/>
  </g>
</mask>
<clipPath id="clip22">
  <rect x="0" y="0" width="157" height="55"/>
</clipPath>
<g id="surface68" clip-path="url(#clip22)">
<path style=" stroke:none;fill-rule:evenodd;fill:rgb(68.235294%,68.235294%,68.235294%);fill-opacity:1;" d="M 48.511719 28.65625 C 45.894531 28.65625 43.28125 28.65625 40.664062 28.65625 C 40.5625 30.753906 40.667969 32.84375 40.976562 34.925781 C 40.351562 32.839844 40.144531 30.710938 40.347656 28.546875 C 43.128906 28.507812 45.847656 28.546875 48.511719 28.65625 Z M 48.511719 28.65625 "/>
</g>
<mask id="mask22">
  <g filter="url(#alpha)">
<rect x="0" y="0" width="157" height="55" style="fill:rgb(0%,0%,0%);fill-opacity:0.454902;stroke:none;"/>
  </g>
</mask>
<clipPath id="clip23">
  <rect x="0" y="0" width="157" height="55"/>
</clipPath>
<g id="surface71" clip-path="url(#clip23)">
<path style=" stroke:none;fill-rule:evenodd;fill:rgb(64.313725%,64.313725%,64.313725%);fill-opacity:1;" d="M 100.007812 28.765625 C 100.464844 28.613281 100.777344 28.648438 100.949219 28.875 C 100.671875 28.808594 100.355469 28.769531 100.007812 28.765625 Z M 100.007812 28.765625 "/>
</g>
<mask id="mask23">
  <g filter="url(#alpha)">
<rect x="0" y="0" width="157" height="55" style="fill:rgb(0%,0%,0%);fill-opacity:0.45098;stroke:none;"/>
  </g>
</mask>
<clipPath id="clip24">
  <rect x="0" y="0" width="157" height="55"/>
</clipPath>
<g id="surface74" clip-path="url(#clip24)">
<path style=" stroke:none;fill-rule:evenodd;fill:rgb(64.313725%,64.313725%,64.313725%);fill-opacity:1;" d="M 127.328125 28.765625 C 127.78125 28.613281 128.09375 28.648438 128.269531 28.875 C 127.988281 28.808594 127.675781 28.769531 127.328125 28.765625 Z M 127.328125 28.765625 "/>
</g>
<mask id="mask24">
  <g filter="url(#alpha)">
<rect x="0" y="0" width="157" height="55" style="fill:rgb(0%,0%,0%);fill-opacity:0.0117647;stroke:none;"/>
  </g>
</mask>
<clipPath id="clip25">
  <rect x="0" y="0" width="157" height="55"/>
</clipPath>
<g id="surface77" clip-path="url(#clip25)">
<path style=" stroke:none;fill-rule:evenodd;fill:rgb(81.176471%,81.176471%,81.176471%);fill-opacity:1;" d="M 112.253906 28.65625 C 112.820312 28.710938 113.34375 28.785156 113.824219 28.875 C 113.109375 28.921875 112.585938 28.847656 112.253906 28.65625 Z M 112.253906 28.65625 "/>
</g>
<mask id="mask25">
  <g filter="url(#alpha)">
<rect x="0" y="0" width="157" height="55" style="fill:rgb(0%,0%,0%);fill-opacity:0.8;stroke:none;"/>
  </g>
</mask>
<clipPath id="clip26">
  <rect x="0" y="0" width="157" height="55"/>
</clipPath>
<g id="surface80" clip-path="url(#clip26)">
<path style=" stroke:none;fill-rule:evenodd;fill:rgb(49.803922%,49.803922%,49.803922%);fill-opacity:1;" d="M 95.613281 29.316406 C 96.09375 29.308594 96.40625 29.378906 96.554688 29.535156 C 96.074219 29.542969 95.761719 29.46875 95.613281 29.316406 Z M 95.613281 29.316406 "/>
</g>
<mask id="mask26">
  <g filter="url(#alpha)">
<rect x="0" y="0" width="157" height="55" style="fill:rgb(0%,0%,0%);fill-opacity:0.8;stroke:none;"/>
  </g>
</mask>
<clipPath id="clip27">
  <rect x="0" y="0" width="157" height="55"/>
</clipPath>
<g id="surface83" clip-path="url(#clip27)">
<path style=" stroke:none;fill-rule:evenodd;fill:rgb(49.803922%,49.803922%,49.803922%);fill-opacity:1;" d="M 122.929688 29.316406 C 123.410156 29.308594 123.722656 29.378906 123.871094 29.535156 C 123.394531 29.542969 123.078125 29.46875 122.929688 29.316406 Z M 122.929688 29.316406 "/>
</g>
<mask id="mask27">
  <g filter="url(#alpha)">
<rect x="0" y="0" width="157" height="55" style="fill:rgb(0%,0%,0%);fill-opacity:0.67451;stroke:none;"/>
  </g>
</mask>
<clipPath id="clip28">
  <rect x="0" y="0" width="157" height="55"/>
</clipPath>
<g id="surface86" clip-path="url(#clip28)">
<path style=" stroke:none;fill-rule:evenodd;fill:rgb(54.901961%,54.901961%,54.901961%);fill-opacity:1;" d="M 129.523438 30.746094 C 129.484375 30.941406 129.585938 31.125 129.839844 31.296875 C 129.476562 31.261719 129.269531 31.171875 129.210938 31.019531 C 129.21875 30.902344 129.324219 30.8125 129.523438 30.746094 Z M 129.523438 30.746094 "/>
</g>
<mask id="mask28">
  <g filter="url(#alpha)">
<rect x="0" y="0" width="157" height="55" style="fill:rgb(0%,0%,0%);fill-opacity:0.937255;stroke:none;"/>
  </g>
</mask>
<clipPath id="clip29">
  <rect x="0" y="0" width="157" height="55"/>
</clipPath>
<g id="surface89" clip-path="url(#clip29)">
<path style=" stroke:none;fill-rule:evenodd;fill:rgb(37.254902%,37.254902%,37.254902%);fill-opacity:1;" d="M 20.882812 32.945312 C 21.230469 33.105469 21.28125 33.289062 21.039062 33.496094 C 20.828125 33.578125 20.566406 33.613281 20.253906 33.605469 C 20.75 33.425781 20.957031 33.203125 20.882812 32.945312 Z M 20.882812 32.945312 "/>
</g>
<mask id="mask29">
  <g filter="url(#alpha)">
<rect x="0" y="0" width="157" height="55" style="fill:rgb(0%,0%,0%);fill-opacity:0.501961;stroke:none;"/>
  </g>
</mask>
<clipPath id="clip30">
  <rect x="0" y="0" width="157" height="55"/>
</clipPath>
<g id="surface92" clip-path="url(#clip30)">
<path style=" stroke:none;fill-rule:evenodd;fill:rgb(54.509804%,54.509804%,54.509804%);fill-opacity:1;" d="M 47.257812 35.695312 C 47.738281 35.6875 48.050781 35.761719 48.199219 35.914062 C 47.71875 35.921875 47.40625 35.851562 47.257812 35.695312 Z M 47.257812 35.695312 "/>
</g>
</defs>
<g id="surface1">
<path style=" stroke:none;fill-rule:evenodd;fill:rgb(9.411765%,9.411765%,9.411765%);fill-opacity:1;" d="M 46.316406 19.195312 C 46.292969 19.363281 46.5 19.472656 46.941406 19.523438 C 49.128906 19.476562 51.328125 19.53125 53.535156 19.691406 C 54.804688 19.839844 55.851562 20.09375 56.675781 20.460938 C 59.789062 20.433594 61.777344 20.929688 62.644531 21.945312 C 69.851562 22.289062 72.941406 23.71875 71.90625 26.234375 C 69.933594 28.003906 66.21875 28.808594 60.757812 28.65625 C 60.707031 29.316406 60.757812 29.976562 60.914062 30.636719 C 61.292969 31.410156 62.546875 31.925781 64.683594 32.175781 C 66.15625 31.28125 68.195312 31.082031 70.808594 31.570312 C 72.226562 32.152344 72.433594 32.796875 71.433594 33.496094 C 69.832031 33.960938 68.054688 34.054688 66.097656 33.769531 C 65.496094 33.613281 65.078125 33.414062 64.839844 33.164062 C 61.398438 32.894531 59.253906 32.160156 58.402344 30.964844 C 58.246094 30.195312 58.195312 29.425781 58.246094 28.65625 C 55.839844 28.65625 53.433594 28.65625 51.023438 28.65625 C 50.921875 30.269531 51.023438 31.882812 51.339844 33.496094 C 53.304688 33.886719 53.988281 34.472656 53.378906 35.253906 C 52.203125 35.996094 50.476562 36.214844 48.199219 35.914062 C 48.050781 35.761719 47.738281 35.6875 47.257812 35.695312 C 45.785156 35.125 45.628906 34.503906 46.785156 33.824219 C 47.175781 33.675781 47.648438 33.5625 48.199219 33.496094 C 48.511719 31.882812 48.617188 30.269531 48.511719 28.65625 C 45.847656 28.546875 43.128906 28.507812 40.347656 28.546875 C 40.144531 30.710938 40.351562 32.839844 40.976562 34.925781 C 42.636719 35.214844 43.316406 35.691406 43.019531 36.355469 C 41.832031 37.386719 39.789062 37.660156 36.894531 37.179688 C 35.421875 36.695312 35.054688 36.128906 35.796875 35.476562 C 36.132812 35.191406 36.710938 35.007812 37.523438 34.925781 C 38.148438 32.839844 38.355469 30.710938 38.152344 28.546875 C 35.371094 28.507812 32.652344 28.546875 29.988281 28.65625 C 30.039062 29.644531 29.988281 30.636719 29.828125 31.625 C 28.777344 32.71875 26.632812 33.398438 23.394531 33.660156 C 22.328125 34.394531 20.65625 34.652344 18.367188 34.429688 C 15.019531 33.585938 15.019531 32.742188 18.367188 31.898438 C 19.3125 31.828125 20.253906 31.828125 21.195312 31.898438 C 22.085938 32.121094 22.921875 32.359375 23.707031 32.613281 C 25.632812 32.363281 26.835938 31.886719 27.316406 31.183594 C 27.476562 30.34375 27.527344 29.5 27.476562 28.65625 C 22.015625 28.808594 18.300781 28.003906 16.328125 26.234375 C 15.199219 24.054688 17.660156 22.660156 23.707031 22.054688 C 24.511719 19.859375 27.964844 18.484375 34.070312 17.929688 C 38.820312 17.621094 42.902344 18.042969 46.316406 19.195312 Z M 35.011719 18.753906 C 40.132812 18.605469 44.007812 19.304688 46.628906 20.84375 C 50.417969 20.066406 53.507812 20.324219 55.890625 21.613281 C 57.449219 21.339844 58.808594 21.449219 59.972656 21.945312 C 60.335938 22.261719 60.492188 22.59375 60.445312 22.933594 C 67.664062 22.839844 70.4375 24.015625 68.765625 26.453125 C 67.351562 27.242188 65.3125 27.664062 62.644531 27.71875 C 56.46875 27.738281 50.292969 27.757812 44.117188 27.773438 C 37.199219 27.789062 30.292969 27.734375 23.394531 27.609375 C 19.300781 26.960938 17.886719 25.878906 19.152344 24.363281 C 20.539062 23.398438 22.789062 22.882812 25.90625 22.824219 C 26.285156 20.714844 29.320312 19.359375 35.011719 18.753906 Z M 45.371094 23.265625 C 45.625 23.433594 45.730469 23.617188 45.6875 23.816406 C 44.558594 23.90625 43.40625 23.945312 42.234375 23.925781 C 42.234375 23.703125 42.234375 23.484375 42.234375 23.265625 C 43.28125 23.265625 44.328125 23.265625 45.371094 23.265625 Z M 33.441406 23.703125 C 33.652344 24.070312 33.859375 24.4375 34.070312 24.804688 C 33.410156 24.835938 32.78125 24.800781 32.183594 24.695312 C 32.523438 24.449219 32.734375 24.191406 32.8125 23.925781 C 33.023438 23.851562 33.230469 23.777344 33.441406 23.703125 Z M 67.667969 32.285156 C 69.441406 32.265625 69.859375 32.503906 68.921875 33 C 67.25 33.019531 66.832031 32.78125 67.667969 32.285156 Z M 20.882812 32.945312 C 20.957031 33.203125 20.75 33.425781 20.253906 33.605469 C 19 33.589844 18.53125 33.367188 18.839844 32.945312 C 19.515625 32.664062 20.199219 32.664062 20.882812 32.945312 Z M 49.453125 34.265625 C 50.320312 34.292969 50.84375 34.457031 51.023438 34.761719 C 50.160156 35.265625 49.324219 35.25 48.511719 34.703125 C 48.722656 34.523438 49.039062 34.375 49.453125 34.265625 Z M 38.777344 35.695312 C 40.296875 35.683594 40.714844 35.921875 40.035156 36.410156 C 38.101562 36.507812 37.683594 36.269531 38.777344 35.695312 Z M 38.777344 35.695312 "/>
<use xlink:href="#surface5" mask="url(#mask0)"/>
<use xlink:href="#surface8" mask="url(#mask1)"/>
<path style=" stroke:none;fill-rule:evenodd;fill:rgb(9.411765%,9.411765%,9.411765%);fill-opacity:1;" d="M 35.011719 22.496094 C 36.203125 23.746094 37.457031 24.992188 38.777344 26.234375 C 37.746094 26.363281 36.699219 26.378906 35.640625 26.289062 C 35.398438 26.132812 35.191406 25.964844 35.011719 25.796875 C 33.773438 25.6875 32.515625 25.648438 31.242188 25.683594 C 31.289062 25.878906 31.183594 26.0625 30.929688 26.234375 C 29.902344 26.34375 28.855469 26.378906 27.789062 26.34375 C 28.1875 25.742188 28.710938 25.15625 29.359375 24.585938 C 29.898438 24.460938 30.105469 24.277344 29.988281 24.035156 C 30.394531 23.496094 30.917969 22.984375 31.558594 22.496094 C 32.707031 22.347656 33.859375 22.347656 35.011719 22.496094 Z M 33.441406 23.703125 C 33.652344 24.070312 33.859375 24.4375 34.070312 24.804688 C 33.410156 24.835938 32.78125 24.800781 32.183594 24.695312 C 32.523438 24.449219 32.734375 24.191406 32.8125 23.925781 C 33.023438 23.851562 33.230469 23.777344 33.441406 23.703125 Z M 33.441406 23.703125 "/>
<use xlink:href="#surface11" mask="url(#mask2)"/>
<path style=" stroke:none;fill-rule:evenodd;fill:rgb(7.058824%,7.058824%,7.058824%);fill-opacity:1;" d="M 46.628906 22.386719 C 48.152344 22.574219 48.886719 22.957031 48.828125 23.539062 C 48.722656 24.089844 47.992188 24.492188 46.628906 24.75 C 45.167969 24.804688 43.703125 24.824219 42.234375 24.804688 C 42.234375 25.320312 42.234375 25.832031 42.234375 26.34375 C 41.394531 26.34375 40.558594 26.34375 39.722656 26.34375 C 39.722656 25.023438 39.722656 23.703125 39.722656 22.386719 C 42.023438 22.386719 44.328125 22.386719 46.628906 22.386719 Z M 45.371094 23.265625 C 45.625 23.433594 45.730469 23.617188 45.6875 23.816406 C 44.558594 23.90625 43.40625 23.945312 42.234375 23.925781 C 42.234375 23.703125 42.234375 23.484375 42.234375 23.265625 C 43.28125 23.265625 44.328125 23.265625 45.371094 23.265625 Z M 45.371094 23.265625 "/>
<path style=" stroke:none;fill-rule:evenodd;fill:rgb(2.352941%,2.352941%,2.352941%);fill-opacity:1;" d="M 49.769531 22.386719 C 50.605469 22.386719 51.445312 22.386719 52.28125 22.386719 C 52.28125 23.703125 52.28125 25.023438 52.28125 26.34375 C 51.445312 26.34375 50.605469 26.34375 49.769531 26.34375 C 49.769531 25.023438 49.769531 23.703125 49.769531 22.386719 Z M 49.769531 22.386719 "/>
<use xlink:href="#surface14" mask="url(#mask3)"/>
<use xlink:href="#surface17" mask="url(#mask4)"/>
<use xlink:href="#surface20" mask="url(#mask5)"/>
<path style=" stroke:none;fill-rule:evenodd;fill:rgb(14.117647%,14.117647%,14.117647%);fill-opacity:1;" d="M 105.660156 25.136719 C 104.800781 25.144531 103.964844 25.109375 103.148438 25.023438 C 102.566406 24.164062 103.511719 23.871094 105.976562 24.144531 C 106.550781 24.367188 106.710938 24.625 106.445312 24.914062 C 106.316406 25.054688 106.054688 25.125 105.660156 25.136719 Z M 105.660156 25.136719 "/>
<use xlink:href="#surface23" mask="url(#mask6)"/>
<path style=" stroke:none;fill-rule:evenodd;fill:rgb(6.666667%,6.666667%,6.666667%);fill-opacity:1;" d="M 112.253906 24.144531 C 112.253906 25.648438 112.253906 27.152344 112.253906 28.65625 C 112.585938 28.847656 113.109375 28.921875 113.824219 28.875 C 113.933594 29.136719 113.988281 29.390625 113.980469 29.644531 C 112.765625 29.796875 111.5625 29.777344 110.371094 29.589844 C 109.710938 29.449219 109.394531 29.25 109.429688 28.984375 C 109.429688 27.371094 109.429688 25.757812 109.429688 24.144531 C 110.371094 24.144531 111.3125 24.144531 112.253906 24.144531 Z M 112.253906 24.144531 "/>
<path style=" stroke:none;fill-rule:evenodd;fill:rgb(14.117647%,14.117647%,14.117647%);fill-opacity:1;" d="M 118.222656 25.136719 C 117.363281 25.144531 116.523438 25.109375 115.710938 25.023438 C 115.128906 24.164062 116.070312 23.871094 118.535156 24.144531 C 119.113281 24.367188 119.269531 24.625 119.007812 24.914062 C 118.875 25.054688 118.613281 25.125 118.222656 25.136719 Z M 118.222656 25.136719 "/>
<use xlink:href="#surface26" mask="url(#mask7)"/>
<path style=" stroke:none;fill-rule:evenodd;fill:rgb(5.882353%,5.882353%,5.882353%);fill-opacity:1;" d="M 82.109375 28.105469 C 83.210938 28.757812 84.78125 28.921875 86.820312 28.601562 C 87.5 28.414062 87.917969 28.175781 88.078125 27.886719 C 88.390625 26.769531 88.492188 25.632812 88.390625 24.476562 C 89.226562 24.476562 90.066406 24.476562 90.902344 24.476562 C 90.902344 25.757812 90.902344 27.042969 90.902344 28.324219 C 90.566406 29.085938 89.3125 29.542969 87.136719 29.699219 C 85.667969 29.773438 84.203125 29.773438 82.738281 29.699219 C 80.238281 29.46875 78.980469 28.902344 78.972656 27.996094 C 78.972656 26.820312 78.972656 25.648438 78.972656 24.476562 C 79.914062 24.476562 80.855469 24.476562 81.796875 24.476562 C 81.695312 25.703125 81.796875 26.914062 82.109375 28.105469 Z M 82.109375 28.105469 "/>
<use xlink:href="#surface29" mask="url(#mask8)"/>
<use xlink:href="#surface32" mask="url(#mask9)"/>
<path style=" stroke:none;fill-rule:evenodd;fill:rgb(5.882353%,5.882353%,5.882353%);fill-opacity:1;" d="M 96.867188 24.804688 C 97.183594 24.804688 97.496094 24.804688 97.8125 24.804688 C 97.714844 25.121094 97.820312 25.414062 98.125 25.683594 C 99.066406 25.683594 100.007812 25.683594 100.949219 25.683594 C 100.949219 25.941406 100.949219 26.199219 100.949219 26.453125 C 99.90625 26.453125 98.859375 26.453125 97.8125 26.453125 C 97.710938 27.207031 97.8125 27.941406 98.125 28.65625 C 98.714844 28.746094 99.34375 28.785156 100.007812 28.765625 C 100.355469 28.769531 100.671875 28.808594 100.949219 28.875 C 101.488281 29.089844 101.59375 29.328125 101.265625 29.589844 C 99.621094 29.824219 98.050781 29.808594 96.554688 29.535156 C 96.40625 29.378906 96.09375 29.308594 95.613281 29.316406 C 95.371094 29.230469 95.214844 29.121094 95.140625 28.984375 C 94.984375 28.179688 94.933594 27.371094 94.984375 26.566406 C 94.539062 26.460938 94.015625 26.421875 93.414062 26.453125 C 93.414062 26.199219 93.414062 25.941406 93.414062 25.683594 C 93.9375 25.683594 94.460938 25.683594 94.984375 25.683594 C 94.984375 25.390625 94.984375 25.097656 94.984375 24.804688 C 95.613281 24.804688 96.242188 24.804688 96.867188 24.804688 Z M 96.867188 24.804688 "/>
<use xlink:href="#surface35" mask="url(#mask10)"/>
<path style=" stroke:none;fill-rule:evenodd;fill:rgb(5.882353%,5.882353%,5.882353%);fill-opacity:1;" d="M 124.5 24.804688 C 125.003906 25.0625 125.316406 25.359375 125.441406 25.683594 C 126.386719 25.683594 127.328125 25.683594 128.269531 25.683594 C 128.269531 25.941406 128.269531 26.199219 128.269531 26.453125 C 127.222656 26.453125 126.175781 26.453125 125.128906 26.453125 C 125.027344 27.207031 125.132812 27.941406 125.441406 28.65625 C 126.03125 28.746094 126.660156 28.785156 127.328125 28.765625 C 127.675781 28.769531 127.988281 28.808594 128.269531 28.875 C 128.804688 29.089844 128.910156 29.328125 128.582031 29.589844 C 126.9375 29.824219 125.367188 29.808594 123.871094 29.535156 C 123.722656 29.378906 123.410156 29.308594 122.929688 29.316406 C 122.691406 29.230469 122.53125 29.121094 122.460938 28.984375 C 122.304688 28.179688 122.25 27.371094 122.304688 26.566406 C 121.859375 26.460938 121.335938 26.421875 120.734375 26.453125 C 120.734375 26.199219 120.734375 25.941406 120.734375 25.683594 C 121.257812 25.683594 121.78125 25.683594 122.304688 25.683594 C 122.304688 25.390625 122.304688 25.097656 122.304688 24.804688 C 123.035156 24.804688 123.769531 24.804688 124.5 24.804688 Z M 124.5 24.804688 "/>
<use xlink:href="#surface38" mask="url(#mask11)"/>
<use xlink:href="#surface41" mask="url(#mask12)"/>
<use xlink:href="#surface44" mask="url(#mask13)"/>
<use xlink:href="#surface47" mask="url(#mask14)"/>
<path style=" stroke:none;fill-rule:evenodd;fill:rgb(10.588235%,10.588235%,10.588235%);fill-opacity:1;" d="M 103.148438 25.683594 C 104.195312 25.683594 105.242188 25.683594 106.289062 25.683594 C 106.289062 27.003906 106.289062 28.324219 106.289062 29.644531 C 105.242188 29.644531 104.195312 29.644531 103.148438 29.644531 C 103.148438 28.324219 103.148438 27.003906 103.148438 25.683594 Z M 103.148438 25.683594 "/>
<path style=" stroke:none;fill-rule:evenodd;fill:rgb(10.588235%,10.588235%,10.588235%);fill-opacity:1;" d="M 115.710938 25.683594 C 116.753906 25.683594 117.800781 25.683594 118.847656 25.683594 C 118.847656 27.003906 118.847656 28.324219 118.847656 29.644531 C 117.800781 29.644531 116.753906 29.644531 115.710938 29.644531 C 115.710938 28.324219 115.710938 27.003906 115.710938 25.683594 Z M 115.710938 25.683594 "/>
<path style=" stroke:none;fill-rule:evenodd;fill:rgb(11.764706%,11.764706%,11.764706%);fill-opacity:1;" d="M 134.863281 28.214844 C 135.074219 28.507812 135.28125 28.507812 135.492188 28.214844 C 136.160156 27.4375 136.894531 26.667969 137.6875 25.90625 C 138.597656 25.804688 139.539062 25.769531 140.515625 25.796875 C 140.515625 25.90625 140.515625 26.015625 140.515625 26.125 C 139.050781 27.648438 137.425781 29.152344 135.648438 30.636719 C 134.125 31.308594 132.1875 31.527344 129.839844 31.296875 C 129.585938 31.125 129.484375 30.941406 129.523438 30.746094 C 129.523438 30.597656 129.523438 30.453125 129.523438 30.304688 C 131.402344 30.570312 132.761719 30.386719 133.605469 29.753906 C 132.078125 28.445312 130.613281 27.125 129.210938 25.796875 C 130.324219 25.652344 131.421875 25.652344 132.507812 25.796875 C 133.390625 26.59375 134.175781 27.398438 134.863281 28.214844 Z M 134.863281 28.214844 "/>
<use xlink:href="#surface50" mask="url(#mask15)"/>
<use xlink:href="#surface53" mask="url(#mask16)"/>
<use xlink:href="#surface56" mask="url(#mask17)"/>
<use xlink:href="#surface59" mask="url(#mask18)"/>
<use xlink:href="#surface62" mask="url(#mask19)"/>
<use xlink:href="#surface65" mask="url(#mask20)"/>
<use xlink:href="#surface68" mask="url(#mask21)"/>
<use xlink:href="#surface71" mask="url(#mask22)"/>
<use xlink:href="#surface74" mask="url(#mask23)"/>
<use xlink:href="#surface77" mask="url(#mask24)"/>
<use xlink:href="#surface80" mask="url(#mask25)"/>
<use xlink:href="#surface83" mask="url(#mask26)"/>
<use xlink:href="#surface86" mask="url(#mask27)"/>
<use xlink:href="#surface89" mask="url(#mask28)"/>
<use xlink:href="#surface92" mask="url(#mask29)"/>
</g>
</svg>
