<?xml version="1.0" standalone="no"?>
<!DOCTYPE svg PUBLIC "-//W3C//DTD SVG 20010904//EN"
 "http://www.w3.org/TR/2001/REC-SVG-20010904/DTD/svg10.dtd">
<svg version="1.0" xmlns="http://www.w3.org/2000/svg"
 width="500.000000pt" height="500.000000pt" viewBox="0 0 500.000000 500.000000"
 preserveAspectRatio="xMidYMid meet">

<g transform="translate(0.000000,500.000000) scale(0.100000,-0.100000)"
fill="#000000" stroke="none">
<path d="M1870 4415 c-309 -50 -580 -261 -700 -544 -32 -74 -70 -218 -70 -263
0 -22 -6 -29 -27 -34 -63 -13 -102 -28 -177 -67 -218 -112 -357 -361 -343
-612 11 -174 69 -307 192 -431 64 -65 97 -89 165 -122 111 -55 178 -70 327
-78 l123 -7 0 -237 c0 -250 -7 -317 -41 -387 -43 -90 -148 -176 -239 -198 -21
-5 -28 0 -45 31 -27 50 -88 100 -148 120 -118 39 -248 -16 -310 -131 -30 -57
-30 -173 0 -231 43 -81 145 -144 233 -144 88 0 191 65 228 144 19 39 25 44 65
50 125 19 285 140 351 265 58 112 66 162 66 459 l0 262 290 0 290 0 0 -630 0
-629 -32 -17 c-46 -23 -96 -72 -121 -119 -16 -30 -22 -58 -22 -115 0 -64 4
-82 27 -122 48 -81 142 -138 228 -138 136 0 260 127 260 266 0 85 -67 187
-147 228 l-33 17 0 629 0 630 290 0 290 0 0 -493 0 -493 -40 -18 c-86 -38
-149 -156 -137 -257 8 -65 38 -119 91 -166 97 -85 235 -85 332 0 53 47 83 101
91 166 12 101 -50 217 -136 256 l-41 18 0 494 0 493 259 0 258 0 5 -227 c5
-208 7 -235 30 -304 58 -176 202 -312 372 -350 49 -11 56 -16 72 -51 52 -116
214 -174 335 -121 161 72 206 280 88 408 -55 59 -113 85 -192 85 -103 0 -176
-46 -242 -153 -9 -15 -15 -14 -67 7 -72 30 -128 74 -167 133 -54 81 -61 124
-61 358 l0 212 119 7 c145 8 211 24 321 78 65 32 102 59 160 117 206 206 256
497 130 756 -100 205 -279 334 -514 369 l-78 12 -20 52 c-46 124 -181 220
-323 230 -69 5 -71 6 -131 61 -142 130 -344 180 -534 135 l-68 -17 -33 39
c-210 246 -540 370 -849 319z m375 -189 c161 -54 315 -174 405 -313 l44 -70
82 39 c60 29 98 40 150 45 153 12 310 -65 391 -193 19 -30 33 -42 43 -38 84
32 178 20 238 -31 54 -47 72 -89 72 -169 l0 -66 73 0 c201 -1 324 -45 430
-152 70 -71 109 -138 132 -223 69 -266 -94 -540 -360 -610 -52 -13 -230 -15
-1425 -15 -1491 0 -1433 -2 -1544 58 -28 15 -79 55 -113 88 -177 173 -198 453
-48 648 93 122 209 185 371 201 l71 7 6 111 c8 168 56 300 160 435 89 117 250
220 407 262 112 30 304 23 415 -14z m2046 -2715 c21 -22 29 -39 29 -66 0 -74
-91 -122 -146 -77 -52 41 -58 100 -15 143 22 21 39 29 66 29 27 0 44 -8 66
-29z m-3446 -85 c90 -38 67 -176 -30 -176 -49 0 -74 15 -91 57 -14 31 -13 38
3 71 16 32 52 61 76 62 4 0 23 -6 42 -14z m2140 -331 c34 -33 34 -93 1 -132
-47 -54 -145 -26 -159 45 -6 33 15 86 40 101 34 20 92 13 118 -14z m-737 -281
c52 -59 13 -154 -63 -154 -49 0 -74 15 -90 54 -42 99 82 180 153 100z"/>
<path d="M1740 3143 c-74 -218 -136 -400 -138 -404 -2 -5 41 -9 96 -9 l100 0
23 75 22 75 137 0 137 0 22 -75 23 -75 100 0 c55 0 98 4 96 9 -1 5 -64 187
-138 405 l-135 396 -105 0 -105 0 -135 -397z m287 40 l40 -138 -44 -3 c-23 -2
-63 -2 -86 0 l-44 3 40 138 c22 75 43 137 47 137 4 0 25 -62 47 -137z"/>
<path d="M2430 3135 l0 -405 95 0 95 0 0 160 0 160 128 0 c137 1 179 10 236
54 55 41 81 107 81 201 0 93 -23 148 -77 188 -58 43 -89 47 -329 47 l-229 0 0
-405z m429 221 c32 -29 29 -98 -5 -125 -23 -18 -41 -21 -130 -21 l-104 0 0 86
0 86 109 -4 c90 -3 113 -7 130 -22z"/>
<path d="M3160 3135 l0 -405 95 0 95 0 0 405 0 405 -95 0 -95 0 0 -405z"/>
</g>
</svg>
