<?xml version="1.0" encoding="UTF-8"?>
<svg xmlns="http://www.w3.org/2000/svg" xmlns:xlink="http://www.w3.org/1999/xlink" width="49px" height="48px" viewBox="0 0 47 48" version="1.1">
<g id="surface1">
<path style=" stroke:none;fill-rule:nonzero;fill:rgb(0%,0%,0%);fill-opacity:1;" d="M 17.578125 5.617188 C 14.671875 6.097656 12.125 8.121094 10.996094 10.839844 C 10.695312 11.546875 10.339844 12.929688 10.339844 13.363281 C 10.339844 13.574219 10.285156 13.640625 10.085938 13.691406 C 9.492188 13.8125 9.128906 13.957031 8.421875 14.332031 C 6.375 15.40625 5.066406 17.796875 5.199219 20.207031 C 5.300781 21.878906 5.847656 23.15625 7.003906 24.34375 C 7.605469 24.96875 7.914062 25.199219 8.554688 25.515625 C 9.597656 26.042969 10.226562 26.1875 11.628906 26.265625 L 12.785156 26.332031 L 12.785156 28.609375 C 12.785156 31.007812 12.71875 31.652344 12.398438 32.324219 C 11.996094 33.1875 11.007812 34.011719 10.152344 34.222656 C 9.953125 34.273438 9.890625 34.222656 9.730469 33.925781 C 9.476562 33.445312 8.902344 32.964844 8.335938 32.773438 C 7.230469 32.398438 6.007812 32.929688 5.421875 34.03125 C 5.140625 34.578125 5.140625 35.691406 5.421875 36.25 C 5.828125 37.027344 6.785156 37.632812 7.613281 37.632812 C 8.441406 37.632812 9.410156 37.007812 9.757812 36.25 C 9.9375 35.875 9.992188 35.828125 10.367188 35.769531 C 11.542969 35.585938 13.046875 34.425781 13.667969 33.226562 C 14.210938 32.152344 14.289062 31.671875 14.289062 28.820312 L 14.289062 26.304688 L 19.738281 26.304688 L 19.738281 38.390625 L 19.4375 38.554688 C 19.007812 38.773438 18.535156 39.246094 18.300781 39.695312 C 18.152344 39.984375 18.09375 40.253906 18.09375 40.800781 C 18.09375 41.414062 18.132812 41.585938 18.347656 41.972656 C 18.800781 42.75 19.683594 43.296875 20.492188 43.296875 C 21.769531 43.296875 22.9375 42.078125 22.9375 40.742188 C 22.9375 39.925781 22.304688 38.945312 21.554688 38.554688 L 21.242188 38.390625 L 21.242188 26.304688 L 26.695312 26.304688 L 26.695312 35.769531 L 26.320312 35.941406 C 25.511719 36.308594 24.917969 37.441406 25.03125 38.410156 C 25.105469 39.035156 25.390625 39.550781 25.886719 40.003906 C 26.800781 40.820312 28.097656 40.820312 29.007812 40.003906 C 29.507812 39.550781 29.789062 39.035156 29.863281 38.410156 C 29.976562 37.441406 29.394531 36.328125 28.585938 35.953125 L 28.199219 35.777344 L 28.199219 26.304688 L 33.058594 26.304688 L 33.105469 28.484375 C 33.152344 30.480469 33.171875 30.738281 33.390625 31.402344 C 33.933594 33.089844 35.289062 34.398438 36.886719 34.761719 C 37.347656 34.867188 37.410156 34.914062 37.5625 35.25 C 38.050781 36.363281 39.574219 36.921875 40.710938 36.414062 C 42.226562 35.722656 42.648438 33.726562 41.539062 32.496094 C 41.023438 31.929688 40.476562 31.679688 39.734375 31.679688 C 38.765625 31.679688 38.078125 32.121094 37.460938 33.148438 C 37.375 33.292969 37.316406 33.28125 36.828125 33.082031 C 36.152344 32.792969 35.625 32.371094 35.257812 31.804688 C 34.75 31.027344 34.6875 30.613281 34.6875 28.367188 L 34.6875 26.332031 L 35.804688 26.265625 C 37.167969 26.1875 37.789062 26.035156 38.820312 25.515625 C 39.433594 25.210938 39.78125 24.949219 40.324219 24.394531 C 42.261719 22.414062 42.730469 19.621094 41.546875 17.136719 C 40.609375 15.167969 38.925781 13.929688 36.714844 13.59375 L 35.984375 13.476562 L 35.796875 12.980469 C 35.363281 11.789062 34.09375 10.867188 32.757812 10.769531 C 32.109375 10.722656 32.089844 10.714844 31.527344 10.1875 C 30.191406 8.9375 28.292969 8.457031 26.507812 8.890625 L 25.867188 9.054688 L 25.558594 8.679688 C 23.585938 6.316406 20.484375 5.125 17.578125 5.617188 Z M 21.101562 7.429688 C 22.617188 7.949219 24.0625 9.101562 24.910156 10.433594 L 25.324219 11.105469 L 26.09375 10.734375 C 26.660156 10.453125 27.015625 10.347656 27.503906 10.300781 C 28.941406 10.1875 30.417969 10.925781 31.179688 12.152344 C 31.359375 12.441406 31.488281 12.558594 31.585938 12.519531 C 32.375 12.210938 33.257812 12.328125 33.820312 12.816406 C 34.328125 13.265625 34.496094 13.671875 34.496094 14.4375 L 34.496094 15.070312 L 35.183594 15.070312 C 37.074219 15.082031 38.230469 15.503906 39.226562 16.53125 C 39.882812 17.210938 40.25 17.855469 40.46875 18.671875 C 41.117188 21.226562 39.582031 23.855469 37.082031 24.527344 C 36.59375 24.652344 34.921875 24.671875 23.6875 24.671875 C 9.671875 24.671875 10.21875 24.691406 9.175781 24.113281 C 8.910156 23.972656 8.433594 23.585938 8.113281 23.269531 C 6.449219 21.609375 6.25 18.921875 7.660156 17.050781 C 8.535156 15.878906 9.625 15.273438 11.148438 15.121094 L 11.816406 15.054688 L 11.871094 13.988281 C 11.949219 12.375 12.398438 11.105469 13.375 9.8125 C 14.210938 8.6875 15.726562 7.699219 17.203125 7.296875 C 18.253906 7.007812 20.058594 7.074219 21.101562 7.429688 Z M 40.335938 33.496094 C 40.53125 33.707031 40.609375 33.867188 40.609375 34.128906 C 40.609375 34.839844 39.753906 35.300781 39.234375 34.867188 C 38.746094 34.472656 38.691406 33.90625 39.09375 33.496094 C 39.300781 33.292969 39.460938 33.214844 39.714844 33.214844 C 39.96875 33.214844 40.128906 33.292969 40.335938 33.496094 Z M 7.941406 34.308594 C 8.789062 34.675781 8.574219 36 7.660156 36 C 7.199219 36 6.964844 35.855469 6.804688 35.453125 C 6.675781 35.15625 6.683594 35.089844 6.832031 34.769531 C 6.984375 34.464844 7.324219 34.1875 7.546875 34.175781 C 7.585938 34.175781 7.765625 34.234375 7.941406 34.308594 Z M 28.058594 37.488281 C 28.378906 37.804688 28.378906 38.378906 28.070312 38.753906 C 27.625 39.273438 26.707031 39.003906 26.574219 38.324219 C 26.515625 38.007812 26.714844 37.496094 26.949219 37.355469 C 27.269531 37.160156 27.816406 37.230469 28.058594 37.488281 Z M 21.132812 40.1875 C 21.621094 40.753906 21.253906 41.664062 20.539062 41.664062 C 20.078125 41.664062 19.84375 41.519531 19.691406 41.144531 C 19.296875 40.195312 20.464844 39.417969 21.132812 40.1875 Z M 21.132812 40.1875 "/>
<path style=" stroke:none;fill-rule:nonzero;fill:rgb(0%,0%,0%);fill-opacity:1;" d="M 16.355469 17.828125 C 15.660156 19.921875 15.078125 21.667969 15.058594 21.707031 C 15.039062 21.753906 15.445312 21.792969 15.960938 21.792969 L 16.902344 21.792969 L 17.117188 21.070312 L 17.324219 20.351562 L 19.898438 20.351562 L 20.105469 21.070312 L 20.324219 21.792969 L 21.261719 21.792969 C 21.78125 21.792969 22.183594 21.753906 22.164062 21.707031 C 22.15625 21.65625 21.5625 19.910156 20.867188 17.816406 L 19.597656 14.015625 L 17.625 14.015625 Z M 19.054688 17.441406 L 19.429688 18.769531 L 19.015625 18.796875 C 18.800781 18.816406 18.425781 18.816406 18.207031 18.796875 L 17.792969 18.769531 L 18.171875 17.441406 C 18.378906 16.722656 18.574219 16.128906 18.613281 16.128906 C 18.648438 16.128906 18.847656 16.722656 19.054688 17.441406 Z M 19.054688 17.441406 "/>
<path style=" stroke:none;fill-rule:nonzero;fill:rgb(0%,0%,0%);fill-opacity:1;" d="M 22.84375 17.902344 L 22.84375 21.792969 L 24.628906 21.792969 L 24.628906 18.71875 L 25.832031 18.71875 C 27.117188 18.710938 27.515625 18.625 28.050781 18.203125 C 28.566406 17.808594 28.8125 17.175781 28.8125 16.273438 C 28.8125 15.378906 28.59375 14.851562 28.085938 14.46875 C 27.542969 14.054688 27.25 14.015625 24.996094 14.015625 L 22.84375 14.015625 Z M 26.875 15.78125 C 27.175781 16.0625 27.148438 16.722656 26.828125 16.980469 C 26.613281 17.15625 26.441406 17.183594 25.605469 17.183594 L 24.628906 17.183594 L 24.628906 15.53125 L 25.652344 15.570312 C 26.5 15.601562 26.714844 15.636719 26.875 15.78125 Z M 26.875 15.78125 "/>
<path style=" stroke:none;fill-rule:nonzero;fill:rgb(0%,0%,0%);fill-opacity:1;" d="M 29.703125 17.902344 L 29.703125 21.792969 L 31.488281 21.792969 L 31.488281 14.015625 L 29.703125 14.015625 Z M 29.703125 17.902344 "/>
</g>
</svg>
