<?xml version="1.0" standalone="no"?>
<!DOCTYPE svg PUBLIC "-//W3C//DTD SVG 20010904//EN"
 "http://www.w3.org/TR/2001/REC-SVG-20010904/DTD/svg10.dtd">
<svg version="1.0" xmlns="http://www.w3.org/2000/svg"
 width="440.000000pt" height="566.000000pt" viewBox="0 0 440.000000 566.000000"
 preserveAspectRatio="xMidYMid meet">

<g transform="translate(0.000000,566.000000) scale(0.100000,-0.100000)"
fill="#000000" stroke="none">
<path d="M863 5642 l-863 -2 0 -1275 0 -1275 1700 0 1700 0 0 1275 c0 1013 -3
1275 -12 1275 -7 0 -384 1 -838 2 -454 2 -1213 2 -1687 0z m2527 -127 l0 -115
-1685 0 -1685 0 0 115 0 115 1685 0 1685 0 0 -115z m-3217 -272 c-7 -2 -13
-18 -13 -33 0 -16 -5 -32 -11 -36 -8 -4 -8 -9 0 -17 6 -6 11 -20 11 -32 0 -12
5 -26 12 -33 7 -7 8 -12 2 -12 -17 0 -34 23 -34 47 0 12 -8 27 -17 32 -17 10
-17 10 0 11 12 0 17 8 17 28 0 29 16 53 35 51 5 0 4 -3 -2 -6z m1779 -282 c-9
-6 -14 -29 -14 -71 0 -42 5 -65 14 -71 10 -7 9 -9 -4 -9 -13 0 -18 8 -18 30 0
18 -6 33 -15 36 -13 5 -13 8 0 21 8 8 15 28 15 44 0 21 5 29 18 29 13 0 14 -2
4 -9z m-1385 -38 c-3 -10 -5 -4 -5 12 0 17 2 24 5 18 2 -7 2 -21 0 -30z m50 0
c-3 -10 -5 -4 -5 12 0 17 2 24 5 18 2 -7 2 -21 0 -30z m435 -28 c1 -36 0 -65
-4 -65 -5 0 -8 27 -8 59 0 48 -3 60 -17 64 -14 4 -13 5 4 6 19 1 22 -5 25 -64z
m528 40 c0 -14 -4 -25 -10 -25 -5 0 -10 11 -10 25 0 14 5 25 10 25 6 0 10 -11
10 -25z m37 -12 c-3 -10 -5 -4 -5 12 0 17 2 24 5 18 2 -7 2 -21 0 -30z m-879
-15 c15 -15 16 -28 2 -28 -5 0 -9 6 -7 13 1 7 -8 12 -22 12 -20 0 -25 -6 -28
-32 -3 -25 0 -33 16 -38 12 -3 26 -3 33 1 10 5 10 4 1 -6 -10 -10 -18 -11 -36
-3 -28 13 -38 39 -26 71 9 24 47 30 67 10z m48 -33 c-1 -59 -16 -59 -16 0 0
25 4 45 9 45 5 0 8 -20 7 -45z m72 -3 l-1 -47 -4 43 c-5 54 -26 51 -33 -4 l-6
-39 -4 46 c-5 45 -4 46 23 47 26 1 27 -1 25 -46z m53 6 c5 -54 0 -88 -12 -88
-5 0 -9 29 -9 65 0 72 16 89 21 23z m53 26 c13 -33 6 -63 -16 -75 -22 -12 -22
-11 -5 8 24 28 22 62 -5 73 -23 9 -23 9 -2 9 12 1 25 -6 28 -15z m220 0 c12
-31 6 -63 -13 -74 -25 -13 -27 -13 -45 6 -19 18 -21 55 -4 72 17 17 55 15 62
-4z m65 -19 c14 -40 26 -38 36 5 4 17 10 30 15 30 5 0 -2 -28 -16 -62 -13 -34
-24 -63 -24 -65 0 -2 -8 -3 -17 -3 -15 0 -15 2 2 14 18 13 18 15 -3 65 -11 28
-18 51 -13 51 4 0 13 -16 20 -35z m159 23 c15 -15 16 -28 2 -28 -5 0 -10 7
-10 16 0 10 -7 14 -22 12 -33 -4 -39 -63 -8 -73 12 -4 19 -9 17 -12 -8 -8 -44
15 -51 32 -3 8 -1 26 4 40 10 27 47 34 68 13z m110 0 c15 -15 16 -28 2 -28 -5
0 -10 7 -10 16 0 10 -7 14 -22 12 -31 -4 -38 -63 -9 -73 12 -3 26 -3 33 1 10
5 10 4 1 -6 -10 -10 -18 -11 -36 -3 -28 13 -38 39 -26 71 9 24 47 30 67 10z
m202 3 c0 -6 -4 -13 -10 -16 -5 -3 -10 1 -10 9 0 9 5 16 10 16 6 0 10 -4 10
-9z m-2 -72 c-2 -6 -8 -10 -13 -10 -5 0 -11 4 -13 10 -2 6 4 11 13 11 9 0 15
-5 13 -11z m-418 -219 l0 -70 -30 0 c-29 0 -50 22 -50 54 0 23 30 47 51 41 15
-5 19 -1 19 19 0 14 2 26 5 26 3 0 5 -31 5 -70z m-283 23 c-3 -10 -5 -4 -5 12
0 17 2 24 5 18 2 -7 2 -21 0 -30z m53 17 c0 -11 -4 -20 -10 -20 -5 0 -10 9
-10 20 0 11 5 20 10 20 6 0 10 -9 10 -20z m277 -17 c-3 -10 -5 -4 -5 12 0 17
2 24 5 18 2 -7 2 -21 0 -30z m50 0 c-3 -10 -5 -4 -5 12 0 17 2 24 5 18 2 -7 2
-21 0 -30z m323 -22 c0 -48 3 -60 18 -64 9 -3 -1 -5 -23 -5 -22 0 -32 2 -22 5
13 3 17 15 17 54 0 40 -3 49 -17 49 -15 0 -16 2 -3 10 26 17 30 11 30 -49z
m-550 -20 c0 -22 5 -42 13 -44 6 -3 -6 -5 -28 -5 -22 0 -32 2 -22 5 12 3 17
15 17 44 0 21 5 39 10 39 6 0 10 -18 10 -39z m330 29 c0 -5 -7 -10 -15 -10 -8
0 -15 5 -15 10 0 6 7 10 15 10 8 0 15 -4 15 -10z m-2 -68 c2 -7 -3 -12 -12
-12 -9 0 -16 7 -16 16 0 17 22 14 28 -4z m332 1 c0 -20 -17 -50 -24 -43 -2 3
-2 17 1 33 6 30 23 37 23 10z m-813 -200 c-3 -10 -5 -4 -5 12 0 17 2 24 5 18
2 -7 2 -21 0 -30z m53 12 c0 -14 -4 -25 -10 -25 -5 0 -10 11 -10 25 0 14 5 25
10 25 6 0 10 -11 10 -25z m510 0 c0 -14 -4 -25 -10 -25 -5 0 -10 11 -10 25 0
14 5 25 10 25 6 0 10 -11 10 -25z m37 -12 c-3 -10 -5 -4 -5 12 0 17 2 24 5 18
2 -7 2 -21 0 -30z m293 11 c0 -14 -4 -23 -10 -19 -5 3 -10 15 -10 26 0 10 5
19 10 19 6 0 10 -12 10 -26z m50 1 c0 -14 -4 -25 -10 -25 -5 0 -10 11 -10 25
0 14 5 25 10 25 6 0 10 -11 10 -25z m105 -16 c7 -19 15 -47 19 -64 6 -27 5
-28 -7 -12 -17 21 -56 22 -63 2 -4 -8 -10 -15 -14 -15 -5 0 1 29 13 65 12 36
25 64 31 62 5 -2 15 -19 21 -38z m125 -23 c0 -57 -2 -64 -22 -69 -28 -8 -58
18 -58 49 0 30 27 56 51 49 14 -5 19 -1 19 14 0 12 2 21 5 21 3 0 5 -29 5 -64z
m390 39 c0 -14 -4 -25 -10 -25 -5 0 -10 11 -10 25 0 14 5 25 10 25 6 0 10 -11
10 -25z m50 0 c0 -14 -4 -25 -10 -25 -5 0 -10 11 -10 25 0 14 5 25 10 25 6 0
10 -11 10 -25z m-1452 -17 c7 -7 11 -30 10 -52 -1 -41 -1 -41 -5 -6 -9 71 -49
76 -56 7 l-4 -42 -1 47 c-2 46 0 49 39 57 3 0 10 -4 17 -11z m103 2 c14 -8 19
-21 19 -50 0 -39 -1 -40 -34 -40 -19 0 -37 4 -40 9 -11 18 7 42 35 48 16 3 29
9 29 13 0 12 -28 20 -47 14 -15 -5 -16 -4 -3 5 19 13 17 13 41 1z m135 -45 l2
-50 -7 45 c-3 25 -10 45 -16 45 -5 0 -13 -20 -16 -45 -6 -44 -6 -44 -7 -8 -1
20 -4 43 -7 50 -4 10 3 14 22 13 27 0 28 -2 29 -50z m98 39 c25 -24 19 -34
-20 -34 -28 0 -35 -3 -32 -17 2 -10 16 -21 33 -24 l30 -7 -33 -1 c-25 -1 -35
4 -41 22 -10 26 -4 47 17 65 20 16 27 15 46 -4z m792 -39 l2 -50 -7 45 c-3 25
-10 45 -16 45 -5 0 -13 -20 -16 -45 l-6 -45 -1 43 c-2 53 -22 56 -22 2 0 -22
-4 -40 -10 -40 -5 0 -10 20 -10 44 0 47 6 52 60 51 23 0 25 -4 26 -50z m82 7
c2 -28 8 -42 20 -45 9 -3 -1 -5 -23 -5 -22 0 -32 2 -22 5 12 3 17 15 17 39 0
19 -4 34 -10 34 -5 0 -10 5 -10 11 0 6 6 9 13 7 6 -3 13 -23 15 -46z m132 29
c13 -25 13 -81 0 -81 -5 0 -10 18 -10 40 0 33 -3 40 -20 40 -17 0 -20 -7 -20
-40 0 -22 -4 -40 -10 -40 -5 0 -10 20 -10 44 0 34 4 46 18 49 33 9 41 7 52
-12z m-1178 -28 c-5 -59 -10 -63 -11 -10 -1 26 3 47 7 47 4 0 6 -17 4 -37z
m378 27 c0 -5 -4 -10 -10 -10 -5 0 -10 5 -10 10 0 6 5 10 10 10 6 0 10 -4 10
-10z m1000 -67 c0 -22 -17 -49 -25 -41 -8 8 5 58 16 58 5 0 9 -8 9 -17z
m-1000 -3 c0 -5 -7 -10 -16 -10 -8 0 -12 5 -9 10 3 6 10 10 16 10 5 0 9 -4 9
-10z m-703 -187 c-3 -10 -5 -4 -5 12 0 17 2 24 5 18 2 -7 2 -21 0 -30z m143
-23 c0 -45 4 -61 18 -70 15 -10 15 -10 -3 -8 -17 3 -21 12 -23 58 -2 30 -8 60
-14 67 -8 10 -6 13 6 13 13 0 16 -11 16 -60z m857 23 c-3 -10 -5 -4 -5 12 0
17 2 24 5 18 2 -7 2 -21 0 -30z m50 0 c-3 -10 -5 -4 -5 12 0 17 2 24 5 18 2
-7 2 -21 0 -30z m293 7 c0 -10 -4 -22 -10 -25 -6 -4 -10 7 -10 25 0 18 4 29
10 25 6 -3 10 -15 10 -25z m50 0 c0 -10 -4 -22 -10 -25 -6 -4 -10 7 -10 25 0
18 4 29 10 25 6 -3 10 -15 10 -25z m387 -17 c-3 -10 -5 -2 -5 17 0 19 2 27 5
18 2 -10 2 -26 0 -35z m50 0 c-4 -17 -4 -17 -12 0 -4 9 -4 25 0 35 8 16 8 16
12 0 3 -10 3 -26 0 -35z m-1777 17 c0 -11 -4 -20 -10 -20 -5 0 -10 9 -10 20 0
11 5 20 10 20 6 0 10 -9 10 -20z m1403 -96 c19 -19 42 14 48 67 l6 54 1 -55
c2 -60 -9 -80 -44 -80 -27 0 -34 18 -33 83 l2 52 6 -57 c3 -31 10 -60 14 -64z
m135 109 c-42 -7 -43 -32 -2 -49 30 -12 35 -19 32 -42 -3 -23 -8 -27 -40 -30
-24 -2 -38 1 -38 8 0 8 9 10 24 6 29 -7 54 16 34 31 -7 5 -21 13 -31 16 -44
16 -33 68 15 66 29 -2 30 -2 6 -6z m133 -49 c21 -58 23 -74 9 -74 -5 0 -10 7
-10 15 0 21 -47 19 -59 -2 -18 -33 -21 -7 -5 43 9 27 18 55 20 62 8 25 28 6
45 -44z m-1141 36 c0 -5 8 -11 18 -11 16 -1 16 -2 0 -6 -13 -3 -18 -15 -18
-44 0 -30 4 -39 18 -40 11 0 12 -2 4 -6 -21 -8 -42 18 -42 53 0 19 -5 34 -10
34 -6 0 -5 6 2 15 15 17 28 19 28 5z m-311 -24 c7 -8 11 -30 9 -48 -2 -28 -7
-34 -30 -36 -22 -3 -30 2 -38 22 -20 53 27 101 59 62z m102 5 c-13 -3 -29 -14
-35 -24 -14 -22 2 -49 35 -58 l24 -7 -25 -1 c-45 -2 -63 36 -40 80 7 12 21 19
38 18 27 -1 27 -1 3 -8z m127 -42 l3 -46 -33 1 c-28 1 -33 5 -33 26 0 20 6 26
28 28 33 4 31 23 -4 34 -22 6 -21 7 6 5 28 -2 30 -5 33 -48z m202 7 c0 -34 4
-46 18 -49 9 -3 -1 -5 -23 -5 -22 0 -32 2 -22 5 20 5 25 78 5 86 -8 3 -6 6 5
6 14 1 17 -7 17 -43z m129 30 c31 -37 -9 -103 -46 -80 -37 23 -24 94 17 94 10
0 23 -6 29 -14z m113 2 c4 -7 7 -31 6 -53 0 -25 -2 -30 -5 -15 -9 61 -14 71
-31 68 -12 -2 -19 -17 -23 -48 l-6 -45 -1 50 c-2 48 -1 51 25 53 15 1 30 -4
35 -10z m198 -3 c0 -8 -4 -15 -10 -15 -5 0 -10 7 -10 15 0 8 5 15 10 15 6 0
10 -7 10 -15z m0 -70 c0 -8 -4 -15 -10 -15 -5 0 -10 7 -10 15 0 8 5 15 10 15
6 0 10 -7 10 -15z m-1562 -180 c2 -17 10 -35 18 -41 13 -10 13 -12 -1 -18 -9
-3 -15 -18 -15 -36 0 -25 -4 -30 -22 -30 -21 1 -21 2 -5 11 9 5 17 21 17 34 0
14 5 25 12 25 9 0 9 3 0 12 -7 7 -12 22 -12 35 0 12 -8 27 -17 33 -16 10 -16
10 2 8 14 -2 21 -12 23 -33z m-444 -261 c3 -9 6 -27 6 -40 0 -16 6 -24 18 -25
16 -1 16 -2 0 -6 -11 -3 -18 -14 -18 -28 0 -22 -23 -55 -38 -55 -3 0 -1 5 6
12 7 7 12 21 12 33 0 12 5 26 11 32 8 8 8 13 0 17 -6 4 -11 20 -11 36 0 15 -6
31 -12 33 -8 4 -7 6 3 6 9 1 20 -6 23 -15z m112 -320 c-3 -9 -6 -45 -6 -80 l0
-64 -125 0 -125 0 0 80 0 80 131 0 c115 0 130 -2 125 -16z m874 -59 l0 -75
-430 0 -430 0 0 75 0 75 430 0 430 0 0 -75z m1988 -2 l-3 -78 -985 0 -985 0
-3 78 -3 77 991 0 991 0 -3 -77z m262 -3 l0 -80 -125 0 -125 0 0 80 0 80 125
0 125 0 0 -80z"/>
<path d="M90 5563 c0 -4 10 -17 22 -30 l21 -23 -23 -25 c-30 -32 -18 -46 15
-15 l24 23 20 -24 c11 -13 23 -21 27 -16 4 4 -3 18 -16 32 l-23 25 23 25 c13
14 20 28 16 32 -5 5 -15 -2 -23 -14 -19 -28 -39 -29 -53 -3 -10 19 -30 28 -30
13z"/>
<path d="M267 5563 c-13 -12 -7 -86 7 -102 11 -12 28 -15 60 -13 l46 4 0 47
c0 26 -5 52 -12 59 -13 13 -90 17 -101 5z m83 -48 c0 -33 -2 -35 -35 -35 -33
0 -35 2 -35 35 0 33 2 35 35 35 33 0 35 -2 35 -35z"/>
<path d="M450 5510 c0 -5 22 -10 49 -10 28 0 53 5 56 10 4 6 -15 10 -49 10
-31 0 -56 -4 -56 -10z"/>
<path d="M1125 4891 c-6 -21 9 -61 24 -61 16 0 33 29 29 52 -4 31 -44 37 -53
9z"/>
<path d="M1241 4622 c-16 -29 -2 -64 23 -60 24 3 34 41 16 64 -16 19 -27 18
-39 -4z"/>
<path d="M2037 4366 c-12 -30 -8 -56 8 -56 16 0 18 23 6 54 -7 18 -8 18 -14 2z"/>
<path d="M2142 4351 c-19 -12 -11 -65 10 -69 12 -2 19 5 24 23 8 31 -13 59
-34 46z"/>
<path d="M1240 4305 c-10 -12 -9 -16 4 -21 22 -8 46 2 46 21 0 19 -34 20 -50
0z"/>
<path d="M1473 4353 c-24 -9 -13 -23 18 -23 27 0 30 2 19 15 -13 16 -17 17
-37 8z"/>
<path d="M2700 4081 c0 -5 -3 -16 -6 -25 -4 -12 0 -16 16 -16 16 0 20 4 16 16
-3 9 -6 20 -6 25 0 5 -4 9 -10 9 -5 0 -10 -4 -10 -9z"/>
<path d="M1244 4066 c-11 -28 0 -61 21 -61 16 0 20 7 20 35 0 25 -5 36 -18 38
-9 2 -20 -3 -23 -12z"/>
<path d="M1460 4019 c0 -15 5 -20 22 -17 34 5 37 38 4 38 -20 0 -26 -5 -26
-21z"/>
<path d="M1800 4065 c-18 -21 -4 -65 20 -65 24 0 38 44 20 65 -7 8 -16 15 -20
15 -4 0 -13 -7 -20 -15z"/>
<path d="M138 3209 c-21 -11 -38 -23 -38 -27 0 -8 64 -42 78 -42 4 1 -11 10
-32 22 l-40 21 37 18 c20 11 37 22 37 24 0 7 0 7 -42 -16z"/>
<path d="M3220 3225 c0 -2 17 -13 37 -24 l37 -18 -40 -21 c-21 -12 -34 -21
-27 -22 18 0 83 32 83 42 0 4 -18 17 -40 28 -40 21 -50 24 -50 15z"/>
<path d="M775 2818 c-21 -12 -35 -28 -35 -40 0 -4 11 4 25 18 l24 24 1785 -2
c981 -2 1782 0 1779 5 -8 13 -3555 8 -3578 -5z"/>
<path d="M4379 2793 c6 -12 11 -80 11 -152 l0 -131 -1832 -3 -1833 -2 1838 -3
1837 -2 0 138 c0 110 -3 142 -16 158 -15 18 -15 18 -5 -3z"/>
<path d="M734 2635 c0 -66 1 -92 3 -57 2 34 2 88 0 120 -2 31 -3 3 -3 -63z"/>
<path d="M4015 2676 c-31 -46 25 -97 66 -60 23 21 24 47 3 68 -23 23 -51 20
-69 -8z m60 -26 c0 -18 -6 -26 -23 -28 -13 -2 -25 3 -28 12 -10 26 4 48 28 44
17 -2 23 -10 23 -28z"/>
<path d="M4142 2688 c-17 -17 -15 -54 4 -72 20 -21 37 -20 57 2 32 35 15 82
-28 82 -12 0 -26 -5 -33 -12z m62 -24 c7 -19 -10 -44 -29 -44 -19 0 -38 28
-31 45 7 20 52 19 60 -1z"/>
<path d="M1264 1947 c-3 -8 -4 -36 -2 -63 2 -36 7 -49 18 -49 20 0 22 116 3
122 -7 3 -16 -2 -19 -10z"/>
<path d="M1321 1942 c-13 -25 -2 -112 15 -112 9 0 14 12 14 34 0 23 6 36 18
41 16 6 16 7 -2 21 -17 12 -18 14 -3 14 9 0 17 5 17 10 0 17 -49 11 -59 -8z"/>
<path d="M1430 1896 l0 -66 41 0 c28 0 39 4 37 13 -3 6 -13 12 -24 12 -15 0
-20 9 -24 49 -8 78 -30 71 -30 -8z"/>
<path d="M1621 1942 c-13 -25 -2 -112 15 -112 9 0 14 12 14 35 0 28 4 35 19
35 15 0 21 -8 23 -32 2 -25 8 -34 26 -36 12 -2 22 1 22 7 0 6 -4 11 -10 11
-15 0 -12 48 3 53 8 3 7 10 -7 26 -17 19 -21 19 -35 7 -11 -10 -21 -12 -31 -6
-13 8 -12 10 3 10 9 0 17 5 17 10 0 17 -49 11 -59 -8z"/>
<path d="M1930 1895 c0 -51 3 -65 15 -65 9 0 15 9 16 23 l0 22 16 -22 c8 -13
24 -23 35 -23 18 0 18 2 -6 32 l-25 32 21 29 c26 36 16 48 -16 18 -23 -22 -23
-22 -29 -2 -11 45 -27 20 -27 -44z"/>
<path d="M2293 1953 c-7 -2 -13 -17 -13 -32 0 -15 -5 -32 -11 -38 -8 -8 -8
-17 0 -32 9 -16 21 -21 55 -21 43 0 44 1 41 32 -2 30 -25 55 -25 27 0 -7 -3
-10 -6 -7 -3 4 0 16 6 28 18 34 -9 59 -47 43z m21 -89 c4 -10 1 -14 -6 -12
-15 5 -23 28 -10 28 5 0 13 -7 16 -16z"/>
<path d="M2427 1953 c-4 -3 -7 -33 -7 -65 0 -45 3 -58 15 -58 9 0 15 9 15 25
0 14 5 25 10 25 6 0 16 -11 22 -25 6 -14 17 -25 25 -25 16 0 16 1 3 36 -7 18
-7 30 0 39 6 7 8 19 4 28 -8 22 -71 36 -87 20z m58 -33 c3 -5 -3 -10 -14 -10
-12 0 -21 5 -21 10 0 6 6 10 14 10 8 0 18 -4 21 -10z"/>
<path d="M2532 1895 c-2 -53 0 -65 13 -65 12 0 15 13 15 65 0 47 -4 65 -13 65
-9 0 -14 -20 -15 -65z"/>
<path d="M2672 1898 c3 -66 24 -93 30 -37 4 46 28 50 28 5 0 -25 4 -36 15 -36
11 0 15 12 15 44 0 45 -15 61 -45 50 -10 -4 -15 0 -15 15 0 12 -6 21 -15 21
-13 0 -15 -11 -13 -62z"/>
<path d="M3018 1954 c-3 -3 3 -32 14 -65 27 -79 47 -79 76 1 12 35 17 62 11
65 -15 10 -26 -3 -33 -40 -9 -45 -20 -45 -32 2 -9 35 -23 50 -36 37z"/>
<path d="M3230 1900 c0 -45 4 -62 15 -67 21 -8 21 -7 17 65 -3 45 -8 62 -18
62 -10 0 -14 -15 -14 -60z"/>
<path d="M3595 1948 c-2 -7 -3 -35 -2 -62 2 -56 24 -75 29 -25 4 46 28 50 28
5 0 -25 4 -36 15 -36 11 0 15 12 15 44 0 45 -15 61 -45 50 -10 -4 -15 0 -15
15 0 23 -18 29 -25 9z"/>
<path d="M2785 1934 c-14 -15 -14 -29 2 -86 2 -11 14 -18 29 -18 27 0 32 15 9
24 -8 3 -15 15 -15 26 0 11 7 20 15 20 21 0 19 12 -5 32 -17 16 -21 16 -35 2z"/>
<path d="M3526 1931 c-9 -10 -12 -21 -7 -27 5 -5 11 -22 13 -39 2 -22 9 -31
26 -33 12 -2 22 1 22 7 0 6 -4 11 -10 11 -5 0 -10 11 -10 25 0 14 5 25 10 25
17 0 11 25 -9 37 -15 10 -22 9 -35 -6z"/>
<path d="M2625 1932 c-31 -7 -47 -24 -41 -45 2 -10 0 -30 -5 -44 -12 -31 3
-53 37 -53 52 0 67 59 15 61 -25 0 -25 0 -3 9 12 5 22 13 23 17 0 4 2 18 3 31
3 26 -1 30 -29 24z m5 -36 c0 -3 -4 -8 -10 -11 -5 -3 -10 -1 -10 4 0 6 5 11
10 11 6 0 10 -2 10 -4z m-3 -72 c-3 -3 -12 -4 -19 -1 -8 3 -5 6 6 6 11 1 17
-2 13 -5z"/>
<path d="M1538 1919 c-22 -12 -24 -62 -4 -79 19 -15 58 -9 64 9 3 10 -1 12
-17 8 -11 -3 -24 -1 -27 4 -3 5 6 9 20 9 33 0 39 12 20 38 -17 24 -30 27 -56
11z m39 -25 c-3 -3 -12 -4 -19 -1 -8 3 -5 6 6 6 11 1 17 -2 13 -5z"/>
<path d="M2046 1914 c-20 -19 -21 -58 -2 -74 19 -15 58 -10 64 9 3 9 -1 11
-16 7 -11 -4 -23 -2 -27 4 -4 6 6 10 24 10 20 0 31 5 31 14 0 18 -27 46 -45
46 -7 0 -21 -7 -29 -16z m41 -20 c-3 -3 -12 -4 -19 -1 -8 3 -5 6 6 6 11 1 17
-2 13 -5z"/>
<path d="M2130 1915 c0 -9 7 -31 14 -50 14 -33 14 -36 -6 -46 -24 -13 -9 -35
17 -25 22 8 69 116 56 129 -6 6 -15 -1 -24 -19 l-15 -29 -11 28 c-11 29 -31
37 -31 12z"/>
<path d="M3147 1919 c-23 -13 -13 -28 16 -23 15 3 14 1 -6 -7 -21 -8 -27 -17
-25 -33 2 -17 10 -21 45 -23 l42 -2 -6 37 c-9 59 -28 73 -66 51z m33 -59 c0
-5 -4 -10 -10 -10 -5 0 -10 5 -10 10 0 6 5 10 10 10 6 0 10 -4 10 -10z"/>
<path d="M3287 1924 c-9 -10 -9 -66 1 -81 4 -6 24 -11 45 -11 l38 0 -3 47 c-3
51 -20 58 -28 11 -7 -40 -24 -43 -28 -5 -4 33 -14 49 -25 39z"/>
<path d="M3397 1912 c-21 -23 -22 -56 -3 -71 19 -16 68 -10 74 8 3 10 -2 12
-21 7 -14 -3 -29 -2 -32 4 -4 6 6 10 24 10 24 0 31 4 31 20 0 18 -26 40 -48
40 -5 0 -16 -8 -25 -18z m40 -18 c-3 -3 -12 -4 -19 -1 -8 3 -5 6 6 6 11 1 17
-2 13 -5z"/>
<path d="M3718 1919 c-22 -12 -24 -62 -4 -79 19 -15 58 -9 64 9 3 10 -1 12
-17 8 -11 -3 -24 -1 -27 4 -3 5 6 9 20 9 28 0 36 26 14 48 -14 14 -27 15 -50
1z"/>
<path d="M3805 1921 c-3 -2 -5 -24 -5 -48 0 -32 4 -43 15 -43 10 0 15 11 15
35 0 24 5 35 15 35 10 0 15 -11 15 -35 0 -24 5 -35 15 -35 17 0 21 55 5 80 -8
14 -65 22 -75 11z"/>
<path d="M1790 1910 c0 -5 18 -10 40 -10 22 0 40 5 40 10 0 6 -18 10 -40 10
-22 0 -40 -4 -40 -10z"/>
<path d="M2890 1910 c0 -5 18 -10 40 -10 22 0 40 5 40 10 0 6 -18 10 -40 10
-22 0 -40 -4 -40 -10z"/>
<path d="M1790 1875 c0 -11 11 -15 40 -15 29 0 40 4 40 15 0 11 -11 15 -40 15
-29 0 -40 -4 -40 -15z"/>
<path d="M2890 1875 c0 -13 8 -16 38 -13 20 2 37 8 37 13 0 6 -17 11 -37 13
-30 3 -38 0 -38 -13z"/>
<path d="M2140 1246 c0 -51 4 -68 15 -73 23 -8 23 -5 16 66 -9 90 -31 95 -31
7z"/>
<path d="M2957 1303 c-4 -3 -7 -30 -7 -58 0 -55 20 -89 41 -68 8 8 7 13 0 17
-6 4 -11 32 -11 62 0 50 -7 64 -23 47z"/>
<path d="M1442 1238 c3 -59 19 -83 26 -39 3 19 5 19 26 -6 32 -36 53 -22 24
17 -20 27 -20 30 -4 54 9 14 16 28 16 31 0 13 -24 3 -41 -17 l-18 -23 -1 23
c0 13 -6 22 -15 22 -13 0 -15 -11 -13 -62z"/>
<path d="M1926 1278 c-22 -31 -20 -64 4 -88 24 -24 49 -25 76 -6 16 12 17 17
5 28 -11 10 -14 10 -18 1 -7 -19 -40 -16 -47 3 -4 9 -4 26 0 36 5 16 12 19 34
15 33 -7 44 1 29 20 -18 21 -66 16 -83 -9z"/>
<path d="M2611 1286 c-6 -7 -9 -20 -5 -29 3 -8 1 -18 -5 -22 -17 -10 -13 -43
7 -54 9 -5 33 -8 52 -7 33 2 35 4 32 31 -4 34 -13 46 -19 27 -3 -6 -9 -10 -14
-7 -5 3 -4 14 3 24 23 38 -22 72 -51 37z m34 -16 c3 -5 1 -10 -4 -10 -6 0 -11
5 -11 10 0 6 2 10 4 10 3 0 8 -4 11 -10z m-10 -60 c3 -5 1 -10 -4 -10 -6 0
-11 5 -11 10 0 6 2 10 4 10 3 0 8 -4 11 -10z"/>
<path d="M2741 1288 c0 -7 8 -35 18 -63 24 -69 45 -70 66 -3 10 29 20 59 23
66 2 6 -3 12 -11 12 -9 0 -21 -17 -30 -42 l-14 -43 -12 43 c-7 25 -18 42 -26
42 -8 0 -15 -6 -14 -12z"/>
<path d="M3384 1286 c-9 -25 1 -109 14 -114 7 -2 12 6 12 22 0 34 23 34 39 -1
8 -18 15 -23 22 -16 8 8 7 17 0 32 -9 15 -8 25 1 40 9 15 9 23 -1 35 -17 20
-80 21 -87 2z m66 -26 c0 -5 -9 -10 -20 -10 -11 0 -20 5 -20 10 0 6 9 10 20
10 11 0 20 -4 20 -10z"/>
<path d="M1564 1262 c-24 -15 -26 -50 -5 -71 12 -12 27 -21 34 -21 19 0 42 18
34 26 -4 4 -2 13 4 20 25 31 -31 70 -67 46z m36 -22 c0 -5 -4 -10 -10 -10 -5
0 -10 5 -10 10 0 6 5 10 10 10 6 0 10 -4 10 -10z m7 -36 c-3 -3 -12 -4 -19 -1
-8 3 -5 6 6 6 11 1 17 -2 13 -5z"/>
<path d="M1640 1261 c0 -5 7 -25 15 -44 8 -20 15 -41 15 -47 0 -5 -7 -10 -15
-10 -8 0 -15 -5 -15 -11 0 -6 10 -9 22 -7 23 3 50 46 64 102 9 36 -19 35 -33
-1 l-10 -28 -8 28 c-6 24 -35 39 -35 18z"/>
<path d="M1780 1255 c0 -11 11 -15 40 -15 29 0 40 4 40 15 0 11 -11 15 -40 15
-29 0 -40 -4 -40 -15z"/>
<path d="M2042 1258 c-20 -20 -14 -66 9 -79 33 -17 69 3 69 39 0 33 -16 52
-45 52 -12 0 -26 -5 -33 -12z m48 -39 c0 -10 -7 -19 -15 -19 -15 0 -21 31 -9
43 11 10 24 -3 24 -24z"/>
<path d="M2190 1225 c0 -25 3 -45 8 -46 4 -1 22 -2 40 -4 l32 -3 0 50 c0 56
-23 64 -28 10 -4 -43 -22 -41 -22 3 0 24 -5 35 -15 35 -11 0 -15 -12 -15 -45z"/>
<path d="M2292 1223 c3 -53 20 -61 28 -13 7 44 24 42 28 -3 4 -49 26 -44 30 6
4 48 20 48 24 0 4 -52 23 -43 23 10 l0 42 -68 3 -68 3 3 -48z"/>
<path d="M2452 1223 c3 -53 20 -61 28 -13 3 17 10 31 15 31 6 0 12 -14 15 -31
3 -17 10 -32 15 -33 13 -3 19 37 11 69 -5 20 -12 24 -47 24 l-40 0 3 -47z"/>
<path d="M2867 1263 c-15 -15 -5 -25 19 -19 17 5 23 3 19 -4 -3 -5 -12 -10
-19 -10 -8 0 -19 -7 -26 -15 -20 -24 4 -44 48 -41 36 2 37 3 34 36 -2 19 -9
41 -14 48 -11 13 -50 17 -61 5z m43 -53 c0 -5 -8 -10 -17 -10 -15 0 -16 2 -3
10 19 12 20 12 20 0z"/>
<path d="M3012 1224 l3 -49 38 -1 37 -1 0 48 c0 37 -4 49 -15 49 -10 0 -15
-11 -15 -35 0 -44 -18 -46 -22 -3 -2 17 -9 33 -16 36 -10 3 -12 -8 -10 -44z"/>
<path d="M3122 1258 c-20 -20 -15 -66 8 -78 25 -13 63 -3 57 15 -3 7 -1 17 5
23 16 16 -9 52 -35 52 -13 0 -28 -5 -35 -12z m38 -18 c0 -5 -4 -10 -10 -10 -5
0 -10 5 -10 10 0 6 5 10 10 10 6 0 10 -4 10 -10z m7 -36 c-3 -3 -12 -4 -19 -1
-8 3 -5 6 6 6 11 1 17 -2 13 -5z"/>
<path d="M3250 1255 c0 -10 11 -15 35 -15 24 0 35 5 35 15 0 10 -11 15 -35 15
-24 0 -35 -5 -35 -15z"/>
<path d="M3502 1258 c-20 -20 -14 -66 9 -79 33 -17 69 3 69 39 0 33 -16 52
-45 52 -12 0 -26 -5 -33 -12z m48 -39 c0 -10 -7 -19 -15 -19 -15 0 -21 31 -9
43 11 10 24 -3 24 -24z"/>
<path d="M3590 1258 c0 -27 21 -88 31 -88 5 0 15 12 22 26 l12 27 5 -23 c8
-32 28 -37 38 -8 20 54 23 78 8 78 -8 0 -17 -10 -19 -22 l-4 -23 -8 23 c-9 28
-32 28 -41 0 l-7 -23 -8 23 c-9 23 -29 30 -29 10z"/>
<path d="M1780 1220 c0 -5 18 -10 40 -10 22 0 40 5 40 10 0 6 -18 10 -40 10
-22 0 -40 -4 -40 -10z"/>
<path d="M3250 1220 c0 -5 16 -10 35 -10 19 0 35 5 35 10 0 6 -16 10 -35 10
-19 0 -35 -4 -35 -10z"/>
<path d="M2062 649 c-32 -12 -26 -50 11 -67 15 -7 27 -17 27 -23 0 -13 -27
-11 -36 2 -4 8 -9 8 -17 0 -18 -18 6 -33 44 -29 29 2 34 7 37 31 3 23 -2 29
-27 38 -37 13 -42 34 -7 25 31 -8 43 9 17 23 -23 13 -19 13 -49 0z"/>
<path d="M2250 595 l0 -65 40 0 c30 0 42 5 51 21 16 31 -3 69 -36 69 -18 0
-25 5 -25 20 0 11 -7 20 -15 20 -12 0 -15 -14 -15 -65z m63 -8 c3 -8 1 -20 -4
-28 -11 -19 -34 3 -26 25 8 20 23 21 30 3z"/>
<path d="M2515 651 c-7 -12 12 -24 25 -16 11 7 4 25 -10 25 -5 0 -11 -4 -15
-9z"/>
<path d="M3052 598 c3 -59 5 -63 28 -66 20 -3 23 -1 13 9 -7 7 -13 37 -13 66
0 41 -3 53 -15 53 -13 0 -15 -11 -13 -62z"/>
<path d="M2680 590 l0 -60 59 0 c38 0 61 5 65 13 5 10 7 10 12 0 6 -13 34 -18
34 -7 0 3 -5 15 -11 26 -8 14 -8 23 0 31 6 6 11 15 11 19 0 13 -28 9 -34 -4
-5 -10 -7 -10 -12 0 -6 13 -34 17 -34 5 0 -5 4 -15 9 -22 16 -26 -4 -48 -38
-43 -37 5 -42 32 -6 32 14 0 25 5 25 10 0 6 -11 10 -25 10 -16 0 -25 6 -25 15
0 9 9 15 25 15 14 0 25 5 25 10 0 6 -18 10 -40 10 l-40 0 0 -60z"/>
<path d="M2563 626 c-6 -8 -8 -17 -3 -22 5 -5 10 -22 12 -39 2 -22 9 -31 26
-33 12 -2 22 1 22 7 0 6 -4 11 -10 11 -14 0 -12 48 2 52 9 3 8 9 -4 21 -20 20
-29 21 -45 3z"/>
<path d="M2140 598 c0 -55 10 -68 51 -68 l39 0 0 45 c0 33 -4 45 -15 45 -11 0
-15 -11 -15 -36 0 -45 -24 -42 -28 4 -4 37 -32 45 -32 10z"/>
<path d="M2360 575 c0 -33 4 -45 15 -45 10 0 15 11 15 35 0 19 5 35 10 35 6 0
10 -16 10 -35 0 -46 27 -49 32 -3 4 46 28 49 28 4 0 -26 4 -36 16 -36 12 0 14
9 12 43 l-3 42 -67 3 -68 3 0 -46z"/>
<path d="M2510 575 c0 -33 4 -45 15 -45 11 0 15 12 15 45 0 33 -4 45 -15 45
-11 0 -15 -12 -15 -45z"/>
<path d="M2872 608 c-30 -30 -3 -83 39 -76 31 4 38 29 7 26 -17 -2 -24 3 -26
21 -3 21 -1 23 22 17 19 -5 26 -3 26 9 0 18 -50 21 -68 3z"/>
<path d="M2960 599 c-20 -36 2 -71 42 -67 17 2 34 9 36 17 3 10 -2 12 -22 7
-15 -4 -26 -2 -26 4 0 5 12 10 26 10 21 0 25 4 22 23 -4 32 -62 37 -78 6z"/>
<path d="M808 3 c17 -2 47 -2 65 0 17 2 3 4 -33 4 -36 0 -50 -2 -32 -4z"/>
<path d="M4328 3 c7 -3 16 -2 19 1 4 3 -2 6 -13 5 -11 0 -14 -3 -6 -6z"/>
</g>
</svg>
